<?xml version="1.0" encoding="UTF-8" standalone="no"?>
<!-- Created with Inkscape (http://www.inkscape.org/) -->

<svg
   xmlns:dc="http://purl.org/dc/elements/1.1/"
   xmlns:cc="http://creativecommons.org/ns#"
   xmlns:rdf="http://www.w3.org/1999/02/22-rdf-syntax-ns#"
   xmlns:svg="http://www.w3.org/2000/svg"
   xmlns="http://www.w3.org/2000/svg"
   xmlns:sodipodi="http://sodipodi.sourceforge.net/DTD/sodipodi-0.dtd"
   xmlns:inkscape="http://www.inkscape.org/namespaces/inkscape"
   width="96mm"
   height="56mm"
   viewBox="0 0 340.15748 198.42519"
   id="svg3427"
   version="1.1"
   inkscape:version="0.91 r13725"
   sodipodi:docname="wizytowkaHS1czarna-zenekdrukarz.svg">
  <defs
     id="defs3429" />
  <sodipodi:namedview
     id="base"
     pagecolor="#ffffff"
     bordercolor="#666666"
     borderopacity="1.0"
     inkscape:pageopacity="0.0"
     inkscape:pageshadow="2"
     inkscape:zoom="2.8"
     inkscape:cx="225.46079"
     inkscape:cy="105.58534"
     inkscape:document-units="px"
     inkscape:current-layer="layer1"
     showgrid="false"
     units="mm"
     borderlayer="true"
     showguides="true"
     inkscape:guide-bbox="true"
     inkscape:window-width="1366"
     inkscape:window-height="703"
     inkscape:window-x="0"
     inkscape:window-y="0"
     inkscape:window-maximized="1"
     inkscape:snap-grids="true"
     inkscape:snap-intersection-paths="false"
     inkscape:snap-bbox="true"
     inkscape:object-nodes="false"
     inkscape:snap-to-guides="true"
     inkscape:snap-midpoints="false"
     inkscape:snap-page="true"
     inkscape:snap-bbox-edge-midpoints="false"
     inkscape:bbox-nodes="true">
    <sodipodi:guide
       position="0,10.629999"
       orientation="0,1"
       id="guide3672"
       inkscape:label=""
       inkscape:color="rgb(0,0,255)" />
    <sodipodi:guide
       position="329.52757,0"
       orientation="1,0"
       id="guide3674"
       inkscape:label=""
       inkscape:color="rgb(0,0,255)" />
    <sodipodi:guide
       position="0,187.79526"
       orientation="0,1"
       id="guide3676"
       inkscape:label=""
       inkscape:color="rgb(0,0,255)" />
    <sodipodi:guide
       position="10.63,0"
       orientation="1,0"
       id="guide3678"
       inkscape:label=""
       inkscape:color="rgb(0,0,255)" />
    <inkscape:grid
       type="xygrid"
       id="grid3708" />
    <sodipodi:guide
       position="0,177.16534"
       orientation="0,1"
       id="guide3380"
       inkscape:label=""
       inkscape:color="rgb(0,0,255)" />
    <sodipodi:guide
       position="0,21.259841"
       orientation="0,1"
       id="guide3384"
       inkscape:label=""
       inkscape:color="rgb(0,0,255)" />
    <sodipodi:guide
       position="21.259843,0"
       orientation="1,0"
       id="guide3386"
       inkscape:label=""
       inkscape:color="rgb(0,0,255)" />
    <sodipodi:guide
       position="318.89765,0"
       orientation="1,0"
       id="guide3388"
       inkscape:label=""
       inkscape:color="rgb(0,0,255)" />
  </sodipodi:namedview>
  <metadata
     id="metadata3432">
    <rdf:RDF>
      <cc:Work
         rdf:about="">
        <dc:format>image/svg+xml</dc:format>
        <dc:type
           rdf:resource="http://purl.org/dc/dcmitype/StillImage" />
        <dc:title />
      </cc:Work>
    </rdf:RDF>
  </metadata>
  <g
     inkscape:label="Layer 1"
     inkscape:groupmode="layer"
     id="layer1"
     transform="translate(0,-853.93699)">
    <rect
       style="fill:#000000"
       id="rect3414"
       width="340.15747"
       height="198.42517"
       x="0"
       y="853.93701" />
    <g
       id="g3816"
       transform="matrix(0.93844799,0,0,0.93844799,28.182023,57.449386)"
       style="fill:#ffffff">
      <g
         transform="matrix(1.0887478,0,0,1.0887478,-29.35967,-77.363622)"
         id="g3754"
         style="fill:#ffffff">
        <path
           inkscape:connector-curvature="0"
           d="m 160.79914,871.72439 5.4023,0 0,14.91335 6.40242,0 0,-14.91335 5.4023,0 0,35.62478 -5.4023,0 0,-16.45738 -6.40242,0 0,16.45738 -5.4023,0 0,-35.62478 z"
           id="path3518"
           style="fill:#ffffff" />
        <path
           inkscape:connector-curvature="0"
           d="m 187.63293,871.72439 6.21469,0 6.59143,35.62478 -5.46376,0 -0.98083,-6.38185 -6.50786,0 -0.93866,6.38185 -5.48562,0 6.57061,-35.62478 z m 5.73507,25.17507 -2.50326,-17.75067 -0.22862,0 -2.52383,17.75067 5.25571,0 z"
           id="path3520"
           style="fill:#ffffff" />
        <path
           inkscape:connector-curvature="0"
           d="m 211.55714,907.66162 c -0.55677,0 -1.157,-0.045 -1.80377,-0.13501 -0.64677,-0.0913 -1.29329,-0.2816 -1.94006,-0.57348 -0.64678,-0.29188 -1.26501,-0.70592 -1.85649,-1.24186 -0.59148,-0.5349 -1.11199,-1.24057 -1.5646,-2.11622 -0.45133,-0.87694 -0.81393,-1.95807 -1.08396,-3.24364 -0.27131,-1.28558 -0.40761,-2.81932 -0.40761,-4.59866 l 0,-12.61968 c 0,-1.79347 0.13887,-3.32722 0.4179,-4.59865 0.27774,-1.27272 0.64677,-2.34381 1.10453,-3.21278 0.45878,-0.86794 0.98726,-1.56074 1.58646,-2.07508 0.59637,-0.51433 1.21614,-0.90754 1.8552,-1.17885 0.64009,-0.27131 1.27657,-0.44747 1.9092,-0.53105 0.63238,-0.0836 1.22,-0.12601 1.76262,-0.12601 1.41828,0 2.6033,0.19802 3.5561,0.59508 0.95255,0.39604 1.71762,0.93841 2.29496,1.62633 0.57579,0.6892 0.98597,1.4913 1.23028,2.40939 0.24277,0.91783 0.36492,1.8912 0.36492,2.91961 0,0.76507 -0.0383,1.47074 -0.11547,2.11751 -0.0759,0.64678 -0.1903,1.35887 -0.34331,2.13783 l -4.38006,0 0,-1.81406 c 0,-1.96063 -0.21602,-3.42751 -0.64678,-4.40217 -0.43204,-0.97312 -1.06467,-1.45917 -1.89892,-1.45917 -0.50019,0 -0.9384,0.0964 -1.31386,0.29189 -0.37546,0.19416 -0.68792,0.52462 -0.9384,0.99009 -0.24945,0.4665 -0.44104,1.08241 -0.57323,1.8462 -0.13244,0.76507 -0.19801,1.71761 -0.19801,2.85789 l 0,16.26836 c 0,1.11353 0.0525,2.03779 0.15661,2.77457 0.10415,0.73807 0.27363,1.32801 0.51022,1.7729 0.23659,0.44619 0.54648,0.76122 0.92811,0.94869 0.38318,0.18773 0.8448,0.2816 1.38742,0.2816 0.34717,0 0.68123,-0.0797 1.00166,-0.23917 0.31863,-0.15944 0.60048,-0.41018 0.84454,-0.75067 0.24302,-0.34074 0.43847,-0.77149 0.58376,-1.29329 0.14659,-0.52204 0.21885,-1.13641 0.21885,-1.84619 l 0,-3.48281 4.94454,0 0,3.29507 c 0,2.86433 -0.65448,4.97798 -1.96192,6.3407 -1.30666,1.36273 -3.18346,2.05065 -5.63143,2.06479 z"
           id="path3522"
           style="fill:#ffffff" />
        <path
           inkscape:connector-curvature="0"
           d="m 223.40403,871.72439 5.4023,0 0,15.55987 0.16613,0 6.17482,-15.55987 5.38044,0 -6.88203,16.70683 7.65482,18.91795 -5.77776,0 -6.55029,-16.95757 -0.16613,0 0,16.95757 -5.4023,0 0,-35.62478 z"
           id="path3524"
           style="fill:#ffffff" />
        <path
           inkscape:connector-curvature="0"
           d="m 244.36645,871.72439 13.20216,0 0,4.25405 -7.79986,0 0,10.65904 6.02721,0 0,4.25405 -6.02721,0 0,12.20204 8.00945,0 0,4.25534 -13.41149,0 0,-35.62452 z"
           id="path3526"
           style="fill:#ffffff" />
        <path
           inkscape:connector-curvature="0"
           d="m 261.67942,871.72439 5.8598,0 c 0.66863,0 1.4013,0.0283 2.20108,0.0836 0.79954,0.0553 1.59932,0.19031 2.39885,0.40633 0.79954,0.21602 1.57103,0.53876 2.31425,0.96951 0.74321,0.43204 1.40387,1.02198 1.98249,1.77291 0.5758,0.75093 1.0387,1.69319 1.38587,2.82729 0.34718,1.13256 0.5218,2.50557 0.5218,4.11904 l 0,0.89751 c 0,2.71131 -0.38833,4.91882 -1.16728,6.6223 -0.77896,1.70347 -1.92567,2.92989 -3.44295,3.68082 l 5.71604,14.246 -5.71604,0 -4.73367,-13.32817 -2.02338,0 0,13.32817 -5.29686,0 0,-35.62529 z m 6.10925,18.3959 c 0.94637,0 1.7459,-0.10415 2.39885,-0.31246 0.6532,-0.2083 1.18296,-0.55908 1.58646,-1.05412 0.40375,-0.49248 0.69435,-1.14671 0.87411,-1.96064 0.18259,-0.81239 0.27285,-1.81791 0.27285,-3.01348 l 0,-2.81546 c 0,-0.91783 -0.0849,-1.7099 -0.24945,-2.37853 -0.16716,-0.66709 -0.45004,-1.21614 -0.84608,-1.6469 -0.39604,-0.43075 -0.9204,-0.75067 -1.5736,-0.96026 -0.65552,-0.2083 -1.47588,-0.31245 -2.46314,-0.31245 l -0.81239,0 0,14.4543 0.81239,0 z"
           id="path3528"
           style="fill:#ffffff" />
        <path
           inkscape:connector-curvature="0"
           d="m 159.42227,938.67206 c 0,-0.76508 0.045,-1.47074 0.13501,-2.11726 0.0913,-0.64677 0.22631,-1.34601 0.40761,-2.09668 l 4.19233,0 0,1.73151 c 0,0.95897 0.0592,1.80762 0.17745,2.5444 0.11701,0.73807 0.31245,1.36016 0.58376,1.86677 0.27132,0.50791 0.63238,0.89109 1.08499,1.14825 0.45133,0.25691 1.00424,0.3855 1.65718,0.3855 1.0297,0 1.81534,-0.2816 2.35771,-0.84454 0.54107,-0.56294 0.81238,-1.38716 0.81238,-2.47214 0,-0.55548 -0.0386,-1.06699 -0.11443,-1.53246 -0.0759,-0.4665 -0.20831,-0.92811 -0.39604,-1.38741 -0.18773,-0.45879 -0.44233,-0.94226 -0.76096,-1.45016 -0.32017,-0.50662 -0.73035,-1.07367 -1.23182,-1.69962 l -5.63092,-6.69559 c -1.00167,-1.27914 -1.77291,-2.56858 -2.31528,-3.8683 -0.54262,-1.30126 -0.81393,-2.68713 -0.81393,-4.16172 0,-1.18143 0.18516,-2.26641 0.55265,-3.25393 0.36904,-0.98752 0.90137,-1.83848 1.59675,-2.55469 0.69435,-0.71621 1.55303,-1.27272 2.57527,-1.66876 1.02223,-0.39706 2.18051,-0.59508 3.47252,-0.59508 1.57231,0 2.88232,0.22245 3.93259,0.66863 1.04924,0.4449 1.88734,1.02867 2.51329,1.75105 0.62491,0.72367 1.06698,1.53374 1.32415,2.42971 0.25717,0.89751 0.38575,1.79734 0.38575,2.70102 0,0.76507 -0.0591,1.47074 -0.17745,2.11751 -0.11829,0.64677 -0.25331,1.35887 -0.40632,2.13782 l -4.17201,0 0,-1.68932 c 0,-1.89121 -0.27131,-3.34008 -0.81368,-4.34946 -0.54262,-1.00784 -1.42573,-1.51188 -2.64856,-1.51188 -1.01555,0 -1.7729,0.28159 -2.27412,0.84479 -0.50019,0.56294 -0.75067,1.31772 -0.75067,2.26255 0,0.50148 0.0386,0.9528 0.11572,1.3563 0.0759,0.40375 0.18774,0.77535 0.33304,1.11584 0.14658,0.34075 0.32403,0.67095 0.53207,0.99112 0.20831,0.31889 0.4449,0.65321 0.7085,1.00038 l 6.27898,7.59284 c 1.14027,1.48746 2.01593,2.9173 2.62772,4.2862 0.61206,1.36915 0.91783,2.81957 0.91783,4.34792 0,1.26654 -0.19802,2.40682 -0.59508,3.42134 -0.39604,1.01555 -0.96283,1.87706 -1.69962,2.58658 -0.73678,0.70849 -1.62632,1.25497 -2.66887,1.63661 -1.04384,0.38318 -2.21883,0.57451 -3.52524,0.57451 -1.61346,0 -2.95176,-0.21602 -4.01488,-0.64677 -1.06442,-0.4305 -1.91307,-1.00141 -2.54544,-1.71093 -0.63237,-0.7085 -1.07727,-1.51472 -1.33444,-2.41943 -0.25691,-0.90342 -0.38549,-1.82794 -0.38549,-2.77302 z"
           id="path3530"
           style="fill:#ffffff" />
        <path
           inkscape:connector-curvature="0"
           d="m 180.52587,910.26363 5.4023,0 c 0.68021,0 1.42831,0.0309 2.24224,0.0939 0.81239,0.0617 1.62606,0.20831 2.43999,0.43718 0.81394,0.23017 1.59958,0.58094 2.35642,1.05413 0.75864,0.47319 1.42985,1.11585 2.01336,1.92849 0.58377,0.81393 1.0531,1.83334 1.40799,3.05591 0.35489,1.22386 0.53207,2.71131 0.53207,4.46364 l 0,1.25215 c 0,1.90406 -0.16458,3.53449 -0.49118,4.89079 -0.32661,1.3563 -0.76096,2.49683 -1.30332,3.42109 -0.54134,0.92451 -1.1714,1.66515 -1.88761,2.22166 -0.71595,0.55548 -1.46045,0.97723 -2.23169,1.26114 -0.7715,0.28546 -1.55046,0.47319 -2.3361,0.56294 -0.78564,0.0913 -1.52603,0.1363 -2.22166,0.1363 l -0.52051,0 0,10.84549 -5.4023,0 0,-35.62478 z m 5.67336,20.81558 c 0.97183,0 1.79348,-0.14273 2.46057,-0.42664 0.66734,-0.28545 1.19968,-0.73035 1.59546,-1.33572 0.39603,-0.60434 0.68149,-1.3833 0.85482,-2.3361 0.17384,-0.95255 0.26128,-2.09539 0.26128,-3.43112 l 0,-3.21175 c 0,-1.0567 -0.0774,-1.97093 -0.22913,-2.74345 -0.1543,-0.7715 -0.42793,-1.40773 -0.82397,-1.90767 -0.39603,-0.50019 -0.92811,-0.87308 -1.59546,-1.11584 -0.66863,-0.24302 -1.50931,-0.36518 -2.52357,-0.36518 l -0.27106,0 0,16.87373 0.27106,0 z"
           id="path3532"
           style="fill:#ffffff" />
        <path
           inkscape:connector-curvature="0"
           d="m 203.86143,910.26363 6.21468,0 6.59144,35.62478 -5.46402,0 -0.98083,-6.38159 -6.50786,0 -0.9384,6.38159 -5.48588,0 6.57087,-35.62478 z m 5.73507,25.17533 -2.503,-17.75067 -0.22888,0 -2.52358,17.75067 5.25546,0 z"
           id="path3534"
           style="fill:#ffffff" />
        <path
           inkscape:connector-curvature="0"
           d="m 227.78435,946.20086 c -0.55651,0 -1.15699,-0.045 -1.80377,-0.13475 -0.64677,-0.0913 -1.29329,-0.2816 -1.94006,-0.57323 -0.64678,-0.29162 -1.26501,-0.70592 -1.85649,-1.24185 -0.59148,-0.53491 -1.11199,-1.24057 -1.5646,-2.11623 -0.45133,-0.87668 -0.81367,-1.95781 -1.0837,-3.24338 -0.27131,-1.28558 -0.40761,-2.81958 -0.40761,-4.59891 l 0,-12.62019 c 0,-1.79348 0.13887,-3.32723 0.4179,-4.59866 0.27748,-1.27271 0.64677,-2.34381 1.10427,-3.21278 0.45904,-0.86794 0.98752,-1.56074 1.58646,-2.07508 0.59637,-0.51433 1.21614,-0.90754 1.8552,-1.17885 0.64035,-0.27002 1.27683,-0.44747 1.90921,-0.53105 0.63263,-0.0836 1.21999,-0.12601 1.76262,-0.12601 1.41801,0 2.60329,0.19802 3.55584,0.59509 0.9528,0.39603 1.71787,0.9384 2.29495,1.62632 0.5758,0.6892 0.98598,1.49131 1.23029,2.40939 0.24302,0.91783 0.36517,1.8912 0.36517,2.91961 0,0.76507 -0.0386,1.47074 -0.11572,2.11751 -0.0759,0.64678 -0.19005,1.35887 -0.34332,2.13783 l -4.38006,0 0,-1.81406 c 0,-1.96063 -0.21602,-3.42751 -0.64677,-4.40192 -0.43204,-0.97337 -1.06442,-1.45916 -1.89892,-1.45916 -0.49993,0 -0.9384,0.0964 -1.31387,0.29189 -0.3752,0.19416 -0.68766,0.52462 -0.93814,0.99009 -0.24971,0.4665 -0.44104,1.08241 -0.57348,1.8462 -0.13244,0.76507 -0.19802,1.71761 -0.19802,2.85789 l 0,16.26836 c 0,1.11327 0.0527,2.03778 0.15661,2.77431 0.10416,0.73781 0.27389,1.32801 0.51048,1.77291 0.23659,0.44618 0.54622,0.76121 0.92811,0.94868 0.38293,0.18773 0.84454,0.2816 1.38716,0.2816 0.34743,0 0.68149,-0.0797 1.00167,-0.23916 0.31888,-0.15945 0.60048,-0.41019 0.84479,-0.75067 0.24276,-0.34075 0.43821,-0.7715 0.58377,-1.29329 0.14632,-0.52205 0.21859,-1.13668 0.21859,-1.8462 l 0,-3.48281 4.94454,0 0,3.29507 c 0,2.86458 -0.65423,4.97798 -1.96167,6.3407 -1.30666,1.36273 -3.18372,2.05065 -5.63143,2.06479 z"
           id="path3536"
           style="fill:#ffffff" />
        <path
           inkscape:connector-curvature="0"
           d="m 239.63278,910.26363 13.20216,0 0,4.25405 -7.79986,0 0,10.65904 6.02722,0 0,4.25431 -6.02722,0 0,12.20178 8.00946,0 0,4.25534 -13.4115,0 0,-35.62452 z"
           id="path3538"
           style="fill:#ffffff" />
        <path
           inkscape:connector-curvature="0"
           d="m 158.2087,950.58247 3.0482,0 1.41416,12.68654 0.15944,2.96333 0.3086,0 0.29446,-3.33108 2.26255,-12.31879 2.5444,0 2.1638,12.31879 0.2456,3.33108 0.32017,0 0.14787,-2.96333 1.29072,-12.68654 3.06105,0 -2.93761,20.99791 -3.23336,0 -1.73433,-10.09328 -0.54133,-4.38906 -0.2456,0 -0.52848,4.38906 -1.81919,10.09328 -3.19735,0 -3.02377,-20.99791 z"
           id="path3540"
           style="fill:#ffffff" />
        <path
           inkscape:connector-curvature="0"
           d="m 177.73227,950.58247 3.45478,0 c 0.39321,0 0.82653,0.0154 1.29689,0.0486 0.47216,0.0322 0.94252,0.11316 1.41442,0.23917 0.47164,0.1273 0.9258,0.3176 1.36401,0.57219 0.43847,0.2546 0.82808,0.60306 1.16856,1.04513 0.33946,0.44232 0.61206,0.9978 0.81779,1.66618 0.20445,0.66735 0.30732,1.47717 0.30732,2.42714 l 0,0.52848 c 0,1.59932 -0.23017,2.90032 -0.68921,3.90456 -0.45904,1.00423 -1.13513,1.72661 -2.0275,2.16997 l 3.36837,8.39623 -3.36837,0 -2.79129,-7.85644 -1.19325,0 0,7.85644 -3.12252,0 0,-20.99765 z m 3.60239,10.84291 c 0.55805,0 1.02867,-0.0617 1.41416,-0.18387 0.38447,-0.12344 0.69692,-0.33046 0.9348,-0.62106 0.23634,-0.29188 0.40864,-0.67609 0.51562,-1.15571 0.10647,-0.47935 0.16073,-1.07212 0.16073,-1.77676 l 0,-1.65949 c 0,-0.54134 -0.0502,-1.0081 -0.14787,-1.40131 -0.0993,-0.39346 -0.26488,-0.71749 -0.49762,-0.97183 -0.23402,-0.25331 -0.5439,-0.44258 -0.92811,-0.56576 -0.38575,-0.12216 -0.86922,-0.18388 -1.45171,-0.18388 l -0.47961,0 0,8.51993 0.47961,0 z"
           id="path3542"
           style="fill:#ffffff" />
        <path
           inkscape:connector-curvature="0"
           d="m 195.26306,971.76425 c -0.33689,0 -0.70078,-0.0257 -1.09398,-0.0797 -0.39347,-0.0527 -0.78282,-0.16587 -1.16857,-0.33792 -0.38446,-0.1723 -0.75581,-0.41532 -1.11199,-0.73164 -0.35617,-0.31503 -0.67249,-0.73164 -0.94637,-1.24725 -0.27517,-0.51691 -0.49505,-1.15443 -0.65835,-1.91178 -0.16458,-0.75838 -0.24559,-1.66233 -0.24559,-2.71131 l 0,-7.4388 c 0,-1.0567 0.0836,-1.96064 0.25177,-2.71002 0.16715,-0.74964 0.39089,-1.38073 0.66991,-1.89377 0.27877,-0.51151 0.59637,-0.91912 0.95255,-1.22257 0.35617,-0.30346 0.72907,-0.53491 1.11842,-0.69564 0.38986,-0.15919 0.77664,-0.26334 1.16239,-0.31374 0.38575,-0.0486 0.74193,-0.0733 1.06956,-0.0733 0.31117,0 0.65834,0.0234 1.03895,0.0684 0.38035,0.045 0.76224,0.14273 1.14285,0.29446 0.38163,0.15172 0.75195,0.37803 1.11327,0.67634 0.35978,0.2996 0.68021,0.70567 0.95898,1.21743 0.27773,0.51151 0.50121,1.14799 0.66966,1.90509 0.1669,0.75864 0.25176,1.67416 0.25176,2.74757 l 0,7.4388 c 0,1.04127 -0.0862,1.93595 -0.25845,2.68688 -0.1723,0.74938 -0.39732,1.38458 -0.67609,1.90509 -0.27903,0.52076 -0.60048,0.9384 -0.96566,1.25368 -0.36389,0.31606 -0.73653,0.56191 -1.11868,0.73781 -0.38034,0.17616 -0.75967,0.29317 -1.13641,0.35104 -0.37701,0.0568 -0.71647,0.0849 -1.01993,0.0849 z m 0,-2.39628 c 0.31117,0 0.58403,-0.054 0.81779,-0.16073 0.23402,-0.10518 0.42561,-0.29059 0.57734,-0.55265 0.15173,-0.26205 0.26591,-0.60794 0.3446,-1.03869 0.0784,-0.43076 0.11702,-0.97312 0.11702,-1.6289 l 0,-9.55245 c 0,-0.67223 -0.0386,-1.23414 -0.11702,-1.68547 -0.0787,-0.45004 -0.19287,-0.81239 -0.3446,-1.08756 -0.15173,-0.27362 -0.34332,-0.46907 -0.57734,-0.58376 -0.23376,-0.11444 -0.50662,-0.17231 -0.81779,-0.17231 -0.31991,0 -0.59765,0.0579 -0.83553,0.17231 -0.23788,0.11443 -0.43436,0.30988 -0.5902,0.58376 -0.15661,0.27517 -0.2726,0.63752 -0.35103,1.08756 -0.0784,0.45133 -0.11675,1.01298 -0.11675,1.68547 l 0,9.55245 c 0,0.65578 0.0383,1.19814 0.11675,1.6289 0.0787,0.43075 0.19442,0.77664 0.35103,1.03869 0.15559,0.26231 0.35232,0.44747 0.5902,0.55265 0.23762,0.10673 0.51536,0.16073 0.83553,0.16073 z"
           id="path3544"
           style="fill:#ffffff" />
        <path
           inkscape:connector-curvature="0"
           d="m 207.97532,971.76425 c -0.32763,0 -0.68123,-0.0257 -1.06338,-0.0797 -0.38035,-0.0527 -0.76224,-0.16587 -1.14285,-0.33792 -0.38164,-0.1723 -0.74553,-0.41532 -1.09399,-0.73164 -0.3482,-0.31503 -0.65577,-0.73164 -0.92323,-1.24725 -0.26591,-0.51691 -0.47807,-1.15443 -0.6388,-1.91178 -0.15944,-0.75838 -0.23916,-1.66233 -0.23916,-2.71131 l 0,-7.4388 c 0,-1.0567 0.081,-1.96064 0.24559,-2.71002 0.1633,-0.74964 0.38035,-1.38073 0.65166,-1.89377 0.27003,-0.51151 0.5812,-0.91912 0.9348,-1.22257 0.35206,-0.30346 0.71595,-0.53491 1.09399,-0.69564 0.37675,-0.15919 0.75221,-0.26334 1.1251,-0.31374 0.37264,-0.0486 0.71853,-0.0733 1.0387,-0.0733 0.83553,0 1.53374,0.11701 2.09539,0.35104 0.56191,0.23273 1.01298,0.55265 1.3527,0.95897 0.34049,0.40478 0.58248,0.87797 0.72495,1.41956 0.14401,0.54108 0.21602,1.11456 0.21602,1.72122 0,0.45132 -0.0231,0.86639 -0.0682,1.24828 -0.0453,0.38035 -0.11315,0.80082 -0.20316,1.25986 l -2.58144,0 0,-1.06981 c 0,-1.15571 -0.12704,-2.02082 -0.38035,-2.5943 -0.25459,-0.57322 -0.62723,-0.86022 -1.1197,-0.86022 -0.29446,0 -0.55265,0.0566 -0.77407,0.17102 -0.22091,0.11572 -0.40607,0.30988 -0.55265,0.58479 -0.14762,0.27389 -0.26103,0.63649 -0.33792,1.08756 -0.0784,0.45133 -0.11701,1.01195 -0.11701,1.68418 l 0,9.58949 c 0,0.65577 0.0309,1.20097 0.0926,1.63532 0.0602,0.43436 0.16047,0.78307 0.30063,1.04513 0.13887,0.26231 0.32145,0.44849 0.54648,0.55933 0.2263,0.11058 0.49864,0.16588 0.81779,0.16588 0.20573,0 0.4022,-0.0463 0.59019,-0.14145 0.18876,-0.0939 0.35489,-0.24148 0.49865,-0.44232 0.14273,-0.20059 0.25717,-0.45519 0.34332,-0.7625 0.0862,-0.30706 0.12987,-0.66966 0.12987,-1.08756 l 0,-2.05296 2.91318,0 0,1.94264 c 0,1.68804 -0.38575,2.93375 -1.15571,3.7374 -0.77073,0.80416 -1.87731,1.20945 -3.32002,1.21691 z"
           id="path3546"
           style="fill:#ffffff" />
        <path
           inkscape:connector-curvature="0"
           d="m 214.95894,964.69603 -1.27786,0.99498 -1.45171,-1.9051 2.72931,-2.18823 0,-11.2248 3.1472,0 0,8.69223 2.42226,-1.96681 1.59803,2.06453 -4.02029,3.11146 0,6.76091 4.35332,0 0,2.54543 -7.50052,0 0,-6.8846 z"
           id="path3548"
           style="fill:#ffffff" />
        <path
           inkscape:connector-curvature="0"
           d="m 226.77394,950.58247 3.66385,0 3.88528,20.99791 -3.22179,0 -0.57708,-3.76158 -3.83641,0 -0.55265,3.76158 -3.23336,0 3.87216,-20.99791 z m 3.38097,14.83851 -1.47588,-10.46257 -0.13475,0 -1.48746,10.46257 3.09809,0 z"
           id="path3550"
           style="fill:#ffffff" />
        <path
           inkscape:connector-curvature="0"
           d="m 235.01099,950.58247 3.04819,0 1.41416,12.68654 0.15944,2.96333 0.3086,0 0.29446,-3.33108 2.26281,-12.31879 2.5444,0 2.16355,12.31879 0.24559,3.33108 0.32017,0 0.14762,-2.96333 1.29097,-12.68654 3.06106,0 -2.93787,20.99791 -3.2331,0 -1.73433,-10.09328 -0.54108,-4.38906 -0.2456,0 -0.52847,4.38906 -1.8192,10.09328 -3.19735,0 -3.02402,-20.99791 z"
           id="path3552"
           style="fill:#ffffff" />
      </g>
      <path
         inkscape:connector-curvature="0"
         d="m 123.8512,911.41731 10.58978,-2.64926 3.70144,-37.04366 -53.832565,0 -1.847114,0 -17.054855,0 1.507206,54.28724 -7.189633,-2.29997 -2.88776,-51.98727 -16.605977,0 -0.853013,0 -11.861721,0 11.162423,108.49798 0.0433,0.4146 10.081723,7.20014 13.527335,-6.78879 -1.312354,-28.88663 22.367424,9.95651 21.808851,-9.77897 -0.643,14.01373 -7.461708,3.88475 -13.701978,-6.65633 -14.664686,7.0435 0.850487,31.19152 13.82755,9.0603 43.715475,-30.51902 5.84121,-56.47461 -15.48991,-3.13891 -17.977511,5.445 0.991211,-29.32685 7.51582,-1.12004 -0.42217,13.61395 16.27473,2.06109 z m -68.761747,-37.84545 2.785285,50.11563 -13.238667,3.30995 -4.257127,-53.42558 14.710509,0 z m -5.399892,111.75528 -3.504065,-39.76656 12.947474,5.76216 1.299725,28.61276 -10.743134,5.39164 z m -2.603061,-57.039 11.721719,-2.93034 8.160998,2.61027 0.196655,7.07129 -20.079372,-6.75122 z m 51.072557,43.47663 8.190573,-4.26435 0.007,-0.13428 11.07042,5.37933 -19.836532,12.31029 0.569045,-13.29104 z m -14.774743,-6.13239 11.66687,5.66656 -11.663263,6.07211 -11.668314,-6.13527 11.664707,-5.6034 z m 34.174646,-42.98482 10.9019,2.20868 -29.267291,10.14883 0.232735,-6.86668 18.132656,-5.49083 z m -18.87128,-27.38482 -1.130135,33.44144 0.0028,-7.1e-4 -0.303828,8.92848 33.629793,-11.66217 -5.51789,53.35808 -41.058291,28.66394 0,-29.01612 11.958065,-6.2262 -0.672956,15.7198 23.691322,-14.70442 2.85311,-31.04514 -37.829541,16.96212 0,-86.10961 51.792411,0 -3.36983,33.71929 -7.92069,1.98171 1.35097,-18.10382 -17.3428,2.58394 0,7.3e-4 -10.132236,1.50866 z"
         id="path3554"
         style="fill:#ffffff" />
    </g>
    <g
       style="font-style:normal;font-weight:normal;font-size:14.03628159px;line-height:125%;font-family:sans-serif;letter-spacing:0px;word-spacing:0px;fill:#ffffff;fill-opacity:1;stroke:none;stroke-width:1px;stroke-linecap:butt;stroke-linejoin:miter;stroke-opacity:1"
       id="text3612"
       transform="translate(18.4252,-10.577863)">
      <path
         d="m 85.022323,1038.7185 2.063334,0 0,-4.646 c 0.49127,-0.4772 0.856213,-0.7299 1.417664,-0.7299 0.757959,0 1.024649,0.4211 1.024649,1.3475 l 0,4.0284 2.063333,0 0,-4.2951 c 0,-1.7545 -0.701814,-2.8353 -2.259841,-2.8353 -1.052721,0 -1.796644,0.5053 -2.315987,1.0387 l -0.04211,0 0.11229,-1.3335 0,-2.4142 -2.063334,0 0,9.8394 z"
         style="font-style:normal;font-variant:normal;font-weight:bold;font-stretch:normal;font-family:'Source Code Pro';-inkscape-font-specification:'Source Code Pro';fill:#ffffff"
         id="path3366"
         inkscape:connector-curvature="0" />
      <path
         d="m 97.874075,1038.8869 c 0.926394,0 1.656281,-0.1965 2.273875,-0.3789 l -0.364941,-1.4879 c -0.421088,0.1404 -0.856213,0.2527 -1.375555,0.2527 -1.024649,0 -1.47381,-0.4071 -1.47381,-1.4598 l 0,-2.4423 2.947619,0 0,-1.6142 -2.947619,0 0,-2.1335 -1.69839,0 -0.266689,2.1335 -1.85279,0.084 0,1.53 1.754536,0 0,2.4563 c 0,1.8247 0.786031,3.0599 3.003764,3.0599 z"
         style="font-style:normal;font-variant:normal;font-weight:bold;font-stretch:normal;font-family:'Source Code Pro';-inkscape-font-specification:'Source Code Pro';fill:#ffffff"
         id="path3368"
         inkscape:connector-curvature="0" />
      <path
         d="m 106.29036,1038.8869 c 0.9264,0 1.65628,-0.1965 2.27388,-0.3789 l -0.36494,-1.4879 c -0.42109,0.1404 -0.85622,0.2527 -1.37556,0.2527 -1.02465,0 -1.47381,-0.4071 -1.47381,-1.4598 l 0,-2.4423 2.94762,0 0,-1.6142 -2.94762,0 0,-2.1335 -1.69839,0 -0.26669,2.1335 -1.85279,0.084 0,1.53 1.75454,0 0,2.4563 c 0,1.8247 0.78603,3.0599 3.00376,3.0599 z"
         style="font-style:normal;font-variant:normal;font-weight:bold;font-stretch:normal;font-family:'Source Code Pro';-inkscape-font-specification:'Source Code Pro';fill:#ffffff"
         id="path3370"
         inkscape:connector-curvature="0" />
      <path
         d="m 110.27118,1041.3012 2.06334,0 0,-2.0353 -0.0983,-1.1369 0.0562,0 c 0.49127,0.4913 1.09483,0.7579 1.71242,0.7579 1.55803,0 3.0178,-1.3755 3.0178,-3.7617 0,-2.1475 -1.05272,-3.5371 -2.79322,-3.5371 -0.74392,0 -1.51591,0.3649 -2.07737,0.8702 l -0.0421,0 -0.1544,-0.7018 -1.68436,0 0,9.5447 z m 3.25642,-4.0986 c -0.35091,0 -0.80007,-0.1263 -1.19308,-0.4632 l 0,-2.8213 c 0.43512,-0.4492 0.84217,-0.6457 1.29133,-0.6457 0.87025,0 1.27731,0.6317 1.27731,1.8809 0,1.4317 -0.60356,2.0493 -1.37556,2.0493 z"
         style="font-style:normal;font-variant:normal;font-weight:bold;font-stretch:normal;font-family:'Source Code Pro';-inkscape-font-specification:'Source Code Pro';fill:#ffffff"
         id="path3372"
         inkscape:connector-curvature="0" />
      <path
         d="m 121.88774,1034.3532 c 0.9685,0 1.62821,-0.7158 1.62821,-1.6422 0,-0.9264 -0.65971,-1.6563 -1.62821,-1.6563 -0.9685,0 -1.62821,0.7299 -1.62821,1.6563 0,0.9264 0.65971,1.6422 1.62821,1.6422 z m 0,4.5337 c 0.9685,0 1.62821,-0.7158 1.62821,-1.6422 0,-0.9264 -0.65971,-1.6563 -1.62821,-1.6563 -0.9685,0 -1.62821,0.7299 -1.62821,1.6563 0,0.9264 0.65971,1.6422 1.62821,1.6422 z"
         style="font-style:normal;font-variant:normal;font-weight:bold;font-stretch:normal;font-family:'Source Code Pro';-inkscape-font-specification:'Source Code Pro';fill:#ffffff"
         id="path3374"
         inkscape:connector-curvature="0" />
      <path
         d="m 127.13183,1040.9643 1.72646,0 4.61794,-12.2116 -1.72647,0 -4.61793,12.2116 z"
         style="font-style:normal;font-variant:normal;font-weight:bold;font-stretch:normal;font-family:'Source Code Pro';-inkscape-font-specification:'Source Code Pro';fill:#ffffff"
         id="path3376"
         inkscape:connector-curvature="0" />
      <path
         d="m 135.54811,1040.9643 1.72647,0 4.61793,-12.2116 -1.72646,0 -4.61794,12.2116 z"
         style="font-style:normal;font-variant:normal;font-weight:bold;font-stretch:normal;font-family:'Source Code Pro';-inkscape-font-specification:'Source Code Pro';fill:#ffffff"
         id="path3378"
         inkscape:connector-curvature="0" />
      <path
         d="m 143.93633,1038.7185 2.06333,0 0,-4.646 c 0.49127,-0.4772 0.85622,-0.7299 1.41767,-0.7299 0.75796,0 1.02465,0.4211 1.02465,1.3475 l 0,4.0284 2.06333,0 0,-4.2951 c 0,-1.7545 -0.70182,-2.8353 -2.25984,-2.8353 -1.05272,0 -1.79665,0.5053 -2.31599,1.0387 l -0.0421,0 0.11229,-1.3335 0,-2.4142 -2.06333,0 0,9.8394 z"
         style="font-style:normal;font-variant:normal;font-weight:bold;font-stretch:normal;font-family:'Source Code Pro';-inkscape-font-specification:'Source Code Pro';fill:#ffffff"
         id="path3380"
         inkscape:connector-curvature="0" />
      <path
         d="m 155.49674,1038.8869 c 2.23177,0 3.42485,-0.9825 3.42485,-2.2458 0,-1.1369 -0.58952,-1.7405 -2.73707,-2.2317 -1.17905,-0.2667 -1.61417,-0.3509 -1.61417,-0.744 0,-0.3228 0.32283,-0.5474 0.9685,-0.5474 0.772,0 1.57206,0.2386 2.27388,0.6597 l 0.92639,-1.2352 c -0.72988,-0.4632 -1.76857,-0.9544 -3.0178,-0.9544 -1.97911,0 -3.20027,0.8843 -3.20027,2.1756 0,1.0808 0.75796,1.7686 2.65286,2.1756 1.36152,0.2948 1.71242,0.4351 1.71242,0.8282 0,0.3368 -0.3509,0.5895 -1.10886,0.5895 -0.99658,0 -1.95105,-0.2948 -2.80726,-0.8282 l -0.88428,1.2914 c 0.88428,0.5895 2.16158,1.0667 3.41081,1.0667 z"
         style="font-style:normal;font-variant:normal;font-weight:bold;font-stretch:normal;font-family:'Source Code Pro';-inkscape-font-specification:'Source Code Pro';fill:#ffffff"
         id="path3382"
         inkscape:connector-curvature="0" />
      <path
         d="m 160.95138,1038.7185 2.38616,0 0.36495,-2.2598 c 0.11229,-0.8703 0.18247,-1.4738 0.23862,-2.0634 l 0.0561,0 c 0.0842,0.8001 0.16844,1.4598 0.25265,2.0634 l 0.37898,2.2598 2.42828,0 1.06676,-6.962 -1.90894,0 -0.39301,3.2284 c -0.0702,0.6877 -0.0983,1.3615 -0.19651,2.0633 l -0.0562,0 c -0.0983,-0.7018 -0.21054,-1.3756 -0.3509,-2.0633 l -0.44916,-2.302 -1.50189,0 -0.43512,2.302 c -0.14036,0.6597 -0.23862,1.3615 -0.32284,2.0633 l -0.0421,0 c -0.0842,-0.7018 -0.14037,-1.3756 -0.22459,-2.0633 l -0.43512,-3.2284 -1.99315,0 1.13694,6.962 z"
         style="font-style:normal;font-variant:normal;font-weight:bold;font-stretch:normal;font-family:'Source Code Pro';-inkscape-font-specification:'Source Code Pro';fill:#ffffff"
         id="path3384"
         inkscape:connector-curvature="0" />
      <path
         d="m 169.80278,1038.7185 2.06334,0 0,-3.6214 c 0.58952,-1.2492 1.48784,-1.6983 2.34406,-1.6983 0.51934,0 0.80006,0.07 1.23519,0.1965 l 0.42109,-1.7265 c -0.40705,-0.1825 -0.72989,-0.2807 -1.34748,-0.2807 -1.10887,0 -2.13352,0.5474 -2.8213,1.6843 l -0.0421,0 -0.16843,-1.5159 -1.68436,0 0,6.962 z"
         style="font-style:normal;font-variant:normal;font-weight:bold;font-stretch:normal;font-family:'Source Code Pro';-inkscape-font-specification:'Source Code Pro';fill:#ffffff"
         id="path3386"
         inkscape:connector-curvature="0" />
      <path
         d="m 180.80174,1038.8869 c 1.83876,0 3.55118,-1.3334 3.55118,-3.6494 0,-2.316 -1.71242,-3.6494 -3.55118,-3.6494 -1.83875,0 -3.55118,1.3334 -3.55118,3.6494 0,2.316 1.71243,3.6494 3.55118,3.6494 z m 0,-1.6703 c -0.95446,0 -1.4317,-0.772 -1.4317,-1.9791 0,-1.2071 0.47724,-1.9791 1.4317,-1.9791 0.95447,0 1.4317,0.772 1.4317,1.9791 0,1.2071 -0.47723,1.9791 -1.4317,1.9791 z"
         style="font-style:normal;font-variant:normal;font-weight:bold;font-stretch:normal;font-family:'Source Code Pro';-inkscape-font-specification:'Source Code Pro';fill:#ffffff"
         id="path3388"
         inkscape:connector-curvature="0" />
      <path
         d="m 189.21803,1038.8869 c 0.96851,0 1.62821,-0.7158 1.62821,-1.6422 0,-0.9264 -0.6597,-1.6563 -1.62821,-1.6563 -0.9685,0 -1.62821,0.7299 -1.62821,1.6563 0,0.9264 0.65971,1.6422 1.62821,1.6422 z"
         style="font-style:normal;font-variant:normal;font-weight:bold;font-stretch:normal;font-family:'Source Code Pro';-inkscape-font-specification:'Source Code Pro';fill:#ffffff"
         id="path3390"
         inkscape:connector-curvature="0" />
      <path
         d="m 197.63432,1038.8869 c 1.83876,0 3.55118,-1.3334 3.55118,-3.6494 0,-2.316 -1.71242,-3.6494 -3.55118,-3.6494 -1.83875,0 -3.55118,1.3334 -3.55118,3.6494 0,2.316 1.71243,3.6494 3.55118,3.6494 z m 0,-1.6703 c -0.95446,0 -1.4317,-0.772 -1.4317,-1.9791 0,-1.2071 0.47724,-1.9791 1.4317,-1.9791 0.95447,0 1.4317,0.772 1.4317,1.9791 0,1.2071 -0.47723,1.9791 -1.4317,1.9791 z"
         style="font-style:normal;font-variant:normal;font-weight:bold;font-stretch:normal;font-family:'Source Code Pro';-inkscape-font-specification:'Source Code Pro';fill:#ffffff"
         id="path3392"
         inkscape:connector-curvature="0" />
      <path
         d="m 203.46793,1038.7185 2.06333,0 0,-3.6214 c 0.58953,-1.2492 1.48785,-1.6983 2.34406,-1.6983 0.51935,0 0.80007,0.07 1.2352,0.1965 l 0.42108,-1.7265 c -0.40705,-0.1825 -0.72988,-0.2807 -1.34748,-0.2807 -1.10887,0 -2.13351,0.5474 -2.82129,1.6843 l -0.0421,0 -0.16844,-1.5159 -1.68435,0 0,6.962 z"
         style="font-style:normal;font-variant:normal;font-weight:bold;font-stretch:normal;font-family:'Source Code Pro';-inkscape-font-specification:'Source Code Pro';fill:#ffffff"
         id="path3394"
         inkscape:connector-curvature="0" />
      <path
         d="m 214.14405,1041.6802 c 2.52654,0 4.14071,-1.0528 4.14071,-2.5125 0,-1.2493 -0.99658,-1.7546 -2.8213,-1.7546 l -1.29133,0 c -0.81411,0 -1.17905,-0.1544 -1.17905,-0.5193 0,-0.2386 0.0983,-0.365 0.3088,-0.5194 0.3509,0.098 0.67374,0.1404 0.95446,0.1404 1.61418,0 2.87744,-0.7299 2.87744,-2.33 0,-0.3509 -0.1544,-0.7018 -0.3088,-0.9124 l 1.40363,0 0,-1.5159 -2.82129,0 c -0.33687,-0.1123 -0.72989,-0.1684 -1.15098,-0.1684 -1.57206,0 -2.97569,0.8562 -2.97569,2.5265 0,0.8141 0.40706,1.4457 0.91236,1.7826 l 0,0.056 c -0.49127,0.3368 -0.82814,0.8421 -0.82814,1.3053 0,0.5896 0.3088,0.9545 0.70181,1.1931 l 0,0.056 c -0.71585,0.3509 -1.08079,0.8281 -1.08079,1.3896 0,1.2492 1.34748,1.7826 3.15816,1.7826 z m 0.11229,-6.4146 c -0.57548,0 -1.03868,-0.393 -1.03868,-1.151 0,-0.7299 0.4632,-1.1369 1.03868,-1.1369 0.57549,0 1.05273,0.407 1.05273,1.1369 0,0.758 -0.47724,1.151 -1.05273,1.151 z m 0.18248,5.1092 c -1.09483,0 -1.76858,-0.2667 -1.76858,-0.786 0,-0.2527 0.14037,-0.4632 0.49127,-0.6878 0.25266,0.07 0.56146,0.098 1.06676,0.098 l 0.87025,0 c 0.80007,0 1.22116,0.084 1.22116,0.5334 0,0.4772 -0.772,0.8422 -1.88086,0.8422 z"
         style="font-style:normal;font-variant:normal;font-weight:bold;font-stretch:normal;font-family:'Source Code Pro';-inkscape-font-specification:'Source Code Pro';fill:#ffffff"
         id="path3396"
         inkscape:connector-curvature="0" />
    </g>
    <g
       transform="matrix(0.23298803,0,0,0.23298803,259.95167,972.15636)"
       id="g3633">
      <rect
         style="fill:#ffffff;fill-opacity:1"
         x="0"
         y="0"
         width="253"
         height="253"
         id="rect3622" />
      <g
         id="elements">
        <path
           inkscape:connector-curvature="0"
           style="fill:#000000"
           d="m 11,11 11,0 0,11 -11,0 z m 11,0 11,0 0,11 -11,0 z m 11,0 11,0 0,11 -11,0 z m 11,0 11,0 0,11 -11,0 z m 11,0 11,0 0,11 -11,0 z m 11,0 11,0 0,11 -11,0 z m 11,0 11,0 0,11 -11,0 z m 88,0 11,0 0,11 -11,0 z m 11,0 11,0 0,11 -11,0 z m 11,0 11,0 0,11 -11,0 z m 11,0 11,0 0,11 -11,0 z m 11,0 11,0 0,11 -11,0 z m 11,0 11,0 0,11 -11,0 z m 11,0 11,0 0,11 -11,0 z m -220,11 11,0 0,11 -11,0 z m 66,0 11,0 0,11 -11,0 z m 22,0 11,0 0,11 -11,0 z m 22,0 11,0 0,11 -11,0 z m 11,0 11,0 0,11 -11,0 z m 11,0 11,0 0,11 -11,0 z m 22,0 11,0 0,11 -11,0 z m 66,0 11,0 0,11 -11,0 z m -220,11 11,0 0,11 -11,0 z m 22,0 11,0 0,11 -11,0 z m 11,0 11,0 0,11 -11,0 z m 11,0 11,0 0,11 -11,0 z m 22,0 11,0 0,11 -11,0 z m 33,0 11,0 0,11 -11,0 z m 55,0 11,0 0,11 -11,0 z m 22,0 11,0 0,11 -11,0 z m 11,0 11,0 0,11 -11,0 z m 11,0 11,0 0,11 -11,0 z m 22,0 11,0 0,11 -11,0 z m -220,11 11,0 0,11 -11,0 z m 22,0 11,0 0,11 -11,0 z m 11,0 11,0 0,11 -11,0 z m 11,0 11,0 0,11 -11,0 z m 22,0 11,0 0,11 -11,0 z m 22,0 11,0 0,11 -11,0 z m 11,0 11,0 0,11 -11,0 z m 33,0 11,0 0,11 -11,0 z m 22,0 11,0 0,11 -11,0 z m 22,0 11,0 0,11 -11,0 z m 11,0 11,0 0,11 -11,0 z m 11,0 11,0 0,11 -11,0 z m 22,0 11,0 0,11 -11,0 z m -220,11 11,0 0,11 -11,0 z m 22,0 11,0 0,11 -11,0 z m 11,0 11,0 0,11 -11,0 z m 11,0 11,0 0,11 -11,0 z m 22,0 11,0 0,11 -11,0 z m 44,0 11,0 0,11 -11,0 z m 11,0 11,0 0,11 -11,0 z m 33,0 11,0 0,11 -11,0 z m 22,0 11,0 0,11 -11,0 z m 11,0 11,0 0,11 -11,0 z m 11,0 11,0 0,11 -11,0 z m 22,0 11,0 0,11 -11,0 z m -220,11 11,0 0,11 -11,0 z m 66,0 11,0 0,11 -11,0 z m 22,0 11,0 0,11 -11,0 z m 11,0 11,0 0,11 -11,0 z m 11,0 11,0 0,11 -11,0 z m 11,0 11,0 0,11 -11,0 z m 11,0 11,0 0,11 -11,0 z m 22,0 11,0 0,11 -11,0 z m 66,0 11,0 0,11 -11,0 z m -220,11 11,0 0,11 -11,0 z m 11,0 11,0 0,11 -11,0 z m 11,0 11,0 0,11 -11,0 z m 11,0 11,0 0,11 -11,0 z m 11,0 11,0 0,11 -11,0 z m 11,0 11,0 0,11 -11,0 z m 11,0 11,0 0,11 -11,0 z m 22,0 11,0 0,11 -11,0 z m 22,0 11,0 0,11 -11,0 z m 22,0 11,0 0,11 -11,0 z m 22,0 11,0 0,11 -11,0 z m 11,0 11,0 0,11 -11,0 z m 11,0 11,0 0,11 -11,0 z m 11,0 11,0 0,11 -11,0 z m 11,0 11,0 0,11 -11,0 z m 11,0 11,0 0,11 -11,0 z m 11,0 11,0 0,11 -11,0 z m -110,11 11,0 0,11 -11,0 z m 11,0 11,0 0,11 -11,0 z m -121,11 11,0 0,11 -11,0 z m 11,0 11,0 0,11 -11,0 z m 11,0 11,0 0,11 -11,0 z m 11,0 11,0 0,11 -11,0 z m 11,0 11,0 0,11 -11,0 z m 22,0 11,0 0,11 -11,0 z m 11,0 11,0 0,11 -11,0 z m 11,0 11,0 0,11 -11,0 z m 11,0 11,0 0,11 -11,0 z m 22,0 11,0 0,11 -11,0 z m 22,0 11,0 0,11 -11,0 z m 22,0 11,0 0,11 -11,0 z m 22,0 11,0 0,11 -11,0 z m 22,0 11,0 0,11 -11,0 z m -187,11 11,0 0,11 -11,0 z m 22,0 11,0 0,11 -11,0 z m 33,0 11,0 0,11 -11,0 z m 11,0 11,0 0,11 -11,0 z m 66,0 11,0 0,11 -11,0 z m 11,0 11,0 0,11 -11,0 z m 11,0 11,0 0,11 -11,0 z m 11,0 11,0 0,11 -11,0 z m 11,0 11,0 0,11 -11,0 z m 11,0 11,0 0,11 -11,0 z m 11,0 11,0 0,11 -11,0 z m -220,11 11,0 0,11 -11,0 z m 66,0 11,0 0,11 -11,0 z m 44,0 11,0 0,11 -11,0 z m 11,0 11,0 0,11 -11,0 z m 11,0 11,0 0,11 -11,0 z m 66,0 11,0 0,11 -11,0 z m 11,0 11,0 0,11 -11,0 z m -187,11 11,0 0,11 -11,0 z m 11,0 11,0 0,11 -11,0 z m 11,0 11,0 0,11 -11,0 z m 11,0 11,0 0,11 -11,0 z m 22,0 11,0 0,11 -11,0 z m 11,0 11,0 0,11 -11,0 z m 11,0 11,0 0,11 -11,0 z m 11,0 11,0 0,11 -11,0 z m 33,0 11,0 0,11 -11,0 z m 33,0 11,0 0,11 -11,0 z m 11,0 11,0 0,11 -11,0 z m 11,0 11,0 0,11 -11,0 z m -198,11 11,0 0,11 -11,0 z m 66,0 11,0 0,11 -11,0 z m 22,0 11,0 0,11 -11,0 z m 11,0 11,0 0,11 -11,0 z m 11,0 11,0 0,11 -11,0 z m 11,0 11,0 0,11 -11,0 z m 22,0 11,0 0,11 -11,0 z m 11,0 11,0 0,11 -11,0 z m 22,0 11,0 0,11 -11,0 z m 11,0 11,0 0,11 -11,0 z m 33,0 11,0 0,11 -11,0 z m -132,11 11,0 0,11 -11,0 z m 11,0 11,0 0,11 -11,0 z m 11,0 11,0 0,11 -11,0 z m 55,0 11,0 0,11 -11,0 z m 11,0 11,0 0,11 -11,0 z m 11,0 11,0 0,11 -11,0 z m 11,0 11,0 0,11 -11,0 z m 22,0 11,0 0,11 -11,0 z m -220,11 11,0 0,11 -11,0 z m 11,0 11,0 0,11 -11,0 z m 11,0 11,0 0,11 -11,0 z m 11,0 11,0 0,11 -11,0 z m 11,0 11,0 0,11 -11,0 z m 11,0 11,0 0,11 -11,0 z m 11,0 11,0 0,11 -11,0 z m 22,0 11,0 0,11 -11,0 z m 44,0 11,0 0,11 -11,0 z m 11,0 11,0 0,11 -11,0 z m 11,0 11,0 0,11 -11,0 z m 11,0 11,0 0,11 -11,0 z m 33,0 11,0 0,11 -11,0 z m 11,0 11,0 0,11 -11,0 z m -209,11 11,0 0,11 -11,0 z m 66,0 11,0 0,11 -11,0 z m 33,0 11,0 0,11 -11,0 z m 22,0 11,0 0,11 -11,0 z m 22,0 11,0 0,11 -11,0 z m 33,0 11,0 0,11 -11,0 z m 11,0 11,0 0,11 -11,0 z m 11,0 11,0 0,11 -11,0 z m -198,11 11,0 0,11 -11,0 z m 22,0 11,0 0,11 -11,0 z m 11,0 11,0 0,11 -11,0 z m 11,0 11,0 0,11 -11,0 z m 22,0 11,0 0,11 -11,0 z m 22,0 11,0 0,11 -11,0 z m 11,0 11,0 0,11 -11,0 z m 22,0 11,0 0,11 -11,0 z m 22,0 11,0 0,11 -11,0 z m 11,0 11,0 0,11 -11,0 z m 22,0 11,0 0,11 -11,0 z m 11,0 11,0 0,11 -11,0 z m -187,11 11,0 0,11 -11,0 z m 22,0 11,0 0,11 -11,0 z m 11,0 11,0 0,11 -11,0 z m 11,0 11,0 0,11 -11,0 z m 22,0 11,0 0,11 -11,0 z m 22,0 11,0 0,11 -11,0 z m 11,0 11,0 0,11 -11,0 z m 44,0 11,0 0,11 -11,0 z m 22,0 11,0 0,11 -11,0 z m 11,0 11,0 0,11 -11,0 z m 22,0 11,0 0,11 -11,0 z m 11,0 11,0 0,11 -11,0 z m -209,11 11,0 0,11 -11,0 z m 22,0 11,0 0,11 -11,0 z m 11,0 11,0 0,11 -11,0 z m 11,0 11,0 0,11 -11,0 z m 22,0 11,0 0,11 -11,0 z m 22,0 11,0 0,11 -11,0 z m 33,0 11,0 0,11 -11,0 z m 11,0 11,0 0,11 -11,0 z m 11,0 11,0 0,11 -11,0 z m 11,0 11,0 0,11 -11,0 z m 11,0 11,0 0,11 -11,0 z m 33,0 11,0 0,11 -11,0 z m -198,11 11,0 0,11 -11,0 z m 66,0 11,0 0,11 -11,0 z m 22,0 11,0 0,11 -11,0 z m 55,0 11,0 0,11 -11,0 z m 22,0 11,0 0,11 -11,0 z m 11,0 11,0 0,11 -11,0 z m 22,0 11,0 0,11 -11,0 z m -198,11 11,0 0,11 -11,0 z m 11,0 11,0 0,11 -11,0 z m 11,0 11,0 0,11 -11,0 z m 11,0 11,0 0,11 -11,0 z m 11,0 11,0 0,11 -11,0 z m 11,0 11,0 0,11 -11,0 z m 11,0 11,0 0,11 -11,0 z m 22,0 11,0 0,11 -11,0 z m 22,0 11,0 0,11 -11,0 z m 22,0 11,0 0,11 -11,0 z m 11,0 11,0 0,11 -11,0 z m 11,0 11,0 0,11 -11,0 z m 11,0 11,0 0,11 -11,0 z m 11,0 11,0 0,11 -11,0 z m 11,0 11,0 0,11 -11,0 z m 22,0 11,0 0,11 -11,0 z"
           id="path3625" />
      </g>
    </g>
  </g>
</svg>
