<?xml version="1.0" encoding="utf-8"?>
<!-- Generator: Adobe Illustrator 15.0.2, SVG Export Plug-In . SVG Version: 6.00 Build 0)  -->
<!DOCTYPE svg PUBLIC "-//W3C//DTD SVG 1.1//EN" "http://www.w3.org/Graphics/SVG/1.1/DTD/svg11.dtd">
<svg version="1.1" id="Layer_1" xmlns="http://www.w3.org/2000/svg" xmlns:xlink="http://www.w3.org/1999/xlink" x="0px" y="0px"
	 width="841.89px" height="595.28px" viewBox="0 0 841.89 595.28" enable-background="new 0 0 841.89 595.28" xml:space="preserve">
<g>
	<g>
		<path d="M349.085,103.746h21.007v57.991h24.896v-57.991h21.007v138.528h-21.007v-63.995h-24.896v63.995h-21.007V103.746z"/>
		<path d="M453.429,103.746h24.166l25.631,138.528h-21.246l-3.814-24.816h-25.306l-3.65,24.816h-21.331L453.429,103.746z
			 M475.73,201.64l-9.734-69.024h-0.889l-9.814,69.024H475.73z"/>
		<path d="M546.459,243.489c-2.165,0-4.499-0.175-7.014-0.525c-2.515-0.355-5.029-1.095-7.544-2.23s-4.919-2.745-7.219-4.829
			c-2.3-2.08-4.324-4.824-6.084-8.229c-1.755-3.41-3.165-7.614-4.215-12.613c-1.055-4.999-1.585-10.963-1.585-17.882v-49.072
			c0-6.974,0.54-12.938,1.625-17.882c1.08-4.949,2.515-9.114,4.295-12.493c1.784-3.375,3.839-6.069,6.169-8.069
			c2.319-2,4.729-3.529,7.214-4.584c2.489-1.055,4.964-1.74,7.424-2.065c2.459-0.325,4.744-0.49,6.854-0.49
			c5.515,0,10.123,0.77,13.828,2.314c3.704,1.54,6.679,3.649,8.924,6.324c2.239,2.68,3.834,5.799,4.784,9.369
			c0.944,3.569,1.419,7.354,1.419,11.353c0,2.975-0.149,5.719-0.449,8.234c-0.295,2.515-0.74,5.284-1.335,8.313h-17.032v-7.054
			c0-7.624-0.84-13.328-2.515-17.118c-1.68-3.784-4.14-5.674-7.384-5.674c-1.945,0-3.649,0.375-5.109,1.135
			c-1.46,0.755-2.675,2.04-3.649,3.85c-0.97,1.814-1.715,4.209-2.229,7.179c-0.515,2.975-0.77,6.679-0.77,11.113v63.26
			c0,4.33,0.204,7.924,0.609,10.789c0.405,2.87,1.064,5.164,1.984,6.894c0.92,1.735,2.125,2.96,3.609,3.689
			c1.49,0.73,3.285,1.095,5.395,1.095c1.35,0,2.649-0.31,3.895-0.93c1.239-0.62,2.335-1.595,3.284-2.919
			c0.945-1.325,1.705-3,2.27-5.029c0.57-2.03,0.851-4.419,0.851-7.179v-13.543h19.227v12.813c0,11.138-2.545,19.357-7.629,24.656
			C563.276,240.759,555.978,243.434,546.459,243.489z"/>
		<path d="M592.526,103.746h21.007v60.505h0.646l24.011-60.505h20.922l-26.761,64.965l29.766,73.563h-22.467l-25.471-65.94h-0.646
			v65.94h-21.007V103.746z"/>
		<path d="M674.039,103.746h51.337v16.542h-30.33v41.448h23.437v16.542h-23.437v47.448h31.145v16.547h-52.151V103.746z"/>
		<path d="M741.361,103.746h22.786c2.6,0,5.449,0.11,8.559,0.325c3.109,0.215,6.219,0.74,9.328,1.58s6.109,2.095,8.999,3.77
			c2.89,1.68,5.459,3.974,7.709,6.894c2.239,2.92,4.039,6.584,5.389,10.994c1.35,4.404,2.029,9.743,2.029,16.017v3.49
			c0,10.543-1.51,19.127-4.539,25.751s-7.488,11.393-13.388,14.313l22.227,55.396h-22.227l-18.407-51.827h-7.868v51.827h-20.597
			V103.746z M765.117,175.279c3.68,0,6.789-0.405,9.328-1.215c2.54-0.81,4.6-2.174,6.169-4.099c1.57-1.915,2.7-4.459,3.399-7.624
			c0.71-3.159,1.061-7.069,1.061-11.718v-10.948c0-3.569-0.33-6.649-0.97-9.249c-0.65-2.594-1.75-4.729-3.29-6.404
			s-3.579-2.919-6.119-3.734c-2.549-0.81-5.739-1.215-9.578-1.215h-3.159v56.206H765.117z"/>
		<path d="M343.731,364.074c0-2.975,0.175-5.719,0.525-8.233c0.355-2.515,0.88-5.234,1.585-8.153h16.302v6.733
			c0,3.729,0.23,7.029,0.69,9.894c0.455,2.87,1.215,5.289,2.27,7.259c1.055,1.975,2.459,3.465,4.219,4.465
			c1.755,0.999,3.905,1.499,6.444,1.499c4.004,0,7.059-1.095,9.168-3.284c2.104-2.189,3.159-5.394,3.159-9.613
			c0-2.16-0.15-4.149-0.445-5.959c-0.295-1.814-0.81-3.609-1.54-5.395c-0.73-1.784-1.72-3.664-2.959-5.639
			c-1.245-1.97-2.84-4.175-4.79-6.609l-21.896-26.036c-3.895-4.974-6.894-9.988-9.003-15.042c-2.11-5.06-3.165-10.449-3.165-16.183
			c0-4.594,0.72-8.813,2.149-12.653c1.435-3.84,3.505-7.149,6.209-9.934c2.7-2.785,6.039-4.949,10.014-6.489
			c3.975-1.544,8.479-2.314,13.503-2.314c6.114,0,11.208,0.865,15.292,2.6c4.08,1.73,7.339,4,9.773,6.809
			c2.43,2.814,4.149,5.964,5.149,9.448c1,3.49,1.5,6.989,1.5,10.503c0,2.975-0.23,5.719-0.69,8.234s-0.985,5.284-1.58,8.313h-16.223
			v-6.569c0-7.354-1.055-12.988-3.164-16.913c-2.11-3.919-5.544-5.879-10.299-5.879c-3.949,0-6.894,1.095-8.843,3.285
			c-1.945,2.189-2.919,5.124-2.919,8.798c0,1.95,0.15,3.705,0.45,5.274c0.295,1.57,0.73,3.015,1.295,4.339
			c0.57,1.325,1.26,2.609,2.069,3.854c0.81,1.24,1.73,2.54,2.755,3.89l24.416,29.525c4.434,5.784,7.839,11.344,10.218,16.667
			c2.38,5.324,3.569,10.964,3.569,16.907c0,4.925-0.77,9.359-2.314,13.304c-1.54,3.949-3.744,7.299-6.609,10.058
			c-2.865,2.755-6.324,4.88-10.378,6.364c-4.059,1.49-8.628,2.234-13.708,2.234c-6.274,0-11.478-0.84-15.612-2.515
			c-4.139-1.674-7.439-3.894-9.898-6.653c-2.459-2.755-4.189-5.89-5.189-9.408C344.231,371.344,343.731,367.749,343.731,364.074z"/>
		<path d="M425.793,253.607H446.8c2.645,0,5.554,0.12,8.719,0.365c3.159,0.24,6.323,0.81,9.488,1.7
			c3.165,0.895,6.22,2.259,9.163,4.099c2.95,1.84,5.56,4.339,7.829,7.499c2.27,3.165,4.095,7.129,5.475,11.883
			c1.38,4.759,2.069,10.543,2.069,17.357v4.869c0,7.404-0.64,13.744-1.91,19.018c-1.27,5.274-2.959,9.709-5.068,13.303
			c-2.105,3.595-4.555,6.475-7.34,8.639c-2.784,2.16-5.679,3.8-8.678,4.904c-3,1.11-6.029,1.84-9.084,2.189
			c-3.055,0.355-5.934,0.53-8.639,0.53H446.8v42.173h-21.007V253.607z M447.854,334.549c3.779,0,6.974-0.555,9.568-1.659
			c2.595-1.11,4.665-2.84,6.204-5.194c1.54-2.35,2.65-5.379,3.324-9.084c0.676-3.704,1.016-8.148,1.016-13.342v-12.489
			c0-4.109-0.301-7.664-0.891-10.668c-0.6-3-1.664-5.474-3.204-7.418c-1.54-1.945-3.609-3.395-6.204-4.339
			c-2.6-0.945-5.869-1.42-9.813-1.42H446.8v65.614H447.854z"/>
		<path d="M516.534,253.607H540.7l25.631,138.528h-21.247l-3.814-24.815h-25.306l-3.649,24.815h-21.332L516.534,253.607z
			 M538.835,351.502l-9.733-69.024h-0.89l-9.813,69.024H538.835z"/>
		<path d="M609.559,393.35c-2.164,0-4.499-0.175-7.014-0.524c-2.515-0.355-5.029-1.095-7.544-2.229s-4.919-2.745-7.219-4.829
			c-2.3-2.08-4.324-4.824-6.084-8.229c-1.755-3.409-3.164-7.613-4.214-12.612c-1.055-4.999-1.585-10.964-1.585-17.883V297.97
			c0-6.974,0.54-12.938,1.625-17.882c1.079-4.949,2.515-9.114,4.294-12.493c1.785-3.375,3.84-6.069,6.169-8.069
			c2.319-2,4.729-3.529,7.214-4.584c2.49-1.05,4.965-1.74,7.424-2.065c2.46-0.325,4.744-0.49,6.854-0.49
			c5.514,0,10.123,0.77,13.827,2.314c3.705,1.54,6.68,3.649,8.924,6.324c2.239,2.68,3.834,5.799,4.784,9.369
			c0.945,3.569,1.42,7.354,1.42,11.353c0,2.975-0.15,5.719-0.45,8.234c-0.295,2.515-0.739,5.284-1.335,8.313h-17.032v-7.054
			c0-7.624-0.84-13.328-2.515-17.117c-1.68-3.785-4.139-5.674-7.384-5.674c-1.944,0-3.649,0.375-5.109,1.135
			c-1.459,0.755-2.674,2.04-3.648,3.85c-0.971,1.814-1.715,4.209-2.23,7.179c-0.515,2.975-0.77,6.679-0.77,11.113v63.26
			c0,4.329,0.205,7.924,0.609,10.788c0.405,2.869,1.065,5.164,1.985,6.894c0.92,1.735,2.124,2.96,3.609,3.689
			c1.489,0.73,3.284,1.095,5.394,1.095c1.351,0,2.65-0.31,3.895-0.93c1.24-0.62,2.335-1.595,3.285-2.919
			c0.944-1.325,1.704-3,2.27-5.029c0.569-2.03,0.85-4.42,0.85-7.179v-13.543h19.227v12.813c0,11.139-2.544,19.357-7.628,24.656
			C626.376,390.62,619.077,393.295,609.559,393.35z"/>
		<path d="M655.632,253.607h51.337v16.542h-30.33v41.448h23.437v16.543h-23.437v47.447h31.145v16.547h-52.151V253.607z"/>
		<path d="M339.012,410.388h11.853l5.499,49.332l0.62,11.523h1.2l1.145-12.953l8.798-47.902h9.894l8.414,47.902l0.955,12.953h1.245
			l0.575-11.523l5.019-49.332h11.903l-11.423,81.651h-12.573l-6.744-39.248l-2.105-17.067h-0.955l-2.055,17.067l-7.074,39.248
			H350.77L339.012,410.388z"/>
		<path d="M414.93,410.388h13.434c1.529,0,3.214,0.06,5.043,0.189c1.836,0.125,3.665,0.44,5.5,0.93
			c1.834,0.495,3.6,1.235,5.304,2.225c1.705,0.99,3.22,2.345,4.544,4.064c1.32,1.72,2.38,3.88,3.18,6.479
			c0.795,2.595,1.195,5.744,1.195,9.438v2.055c0,6.219-0.895,11.278-2.68,15.183s-4.414,6.714-7.884,8.438l13.098,32.649h-13.098
			l-10.854-30.55h-4.64v30.55H414.93V410.388z M428.938,452.551c2.17,0,4-0.24,5.499-0.715c1.495-0.48,2.71-1.285,3.635-2.415
			c0.919-1.135,1.589-2.629,2.005-4.494c0.414-1.864,0.625-4.169,0.625-6.909v-6.453c0-2.105-0.195-3.92-0.575-5.449
			c-0.386-1.53-1.03-2.79-1.935-3.779c-0.91-0.985-2.115-1.721-3.609-2.2c-1.5-0.475-3.38-0.715-5.645-0.715h-1.865v33.13H428.938z"
			/>
		<path d="M483.099,492.754c-1.31,0-2.725-0.1-4.254-0.31c-1.53-0.205-3.044-0.645-4.544-1.314c-1.495-0.67-2.939-1.615-4.324-2.845
			c-1.385-1.225-2.615-2.845-3.68-4.85c-1.07-2.01-1.925-4.489-2.56-7.434c-0.64-2.949-0.955-6.464-0.955-10.543v-28.926
			c0-4.109,0.325-7.624,0.979-10.538c0.65-2.915,1.52-5.369,2.605-7.364c1.084-1.989,2.319-3.574,3.704-4.754
			s2.835-2.08,4.349-2.705c1.516-0.619,3.02-1.024,4.52-1.22c1.5-0.189,2.885-0.285,4.159-0.285c1.21,0,2.56,0.091,4.04,0.266
			c1.479,0.175,2.964,0.555,4.444,1.145c1.484,0.59,2.924,1.47,4.329,2.63c1.399,1.165,2.645,2.744,3.729,4.734
			c1.08,1.989,1.949,4.464,2.604,7.408c0.649,2.95,0.979,6.51,0.979,10.684v28.926c0,4.049-0.335,7.528-1.005,10.448
			c-0.67,2.914-1.545,5.384-2.629,7.408c-1.085,2.025-2.335,3.649-3.755,4.875c-1.415,1.229-2.864,2.185-4.35,2.869
			c-1.479,0.685-2.954,1.14-4.419,1.365C485.599,492.645,484.279,492.754,483.099,492.754z M483.099,483.436
			c1.21,0,2.271-0.21,3.18-0.625c0.91-0.409,1.655-1.13,2.245-2.149s1.034-2.364,1.34-4.039c0.305-1.675,0.455-3.784,0.455-6.334
			v-37.145c0-2.614-0.15-4.799-0.455-6.554c-0.306-1.75-0.75-3.159-1.34-4.229c-0.59-1.064-1.335-1.824-2.245-2.27
			c-0.909-0.445-1.97-0.67-3.18-0.67c-1.244,0-2.324,0.225-3.249,0.67s-1.689,1.205-2.295,2.27c-0.609,1.07-1.06,2.479-1.365,4.229
			c-0.305,1.755-0.454,3.939-0.454,6.554v37.145c0,2.55,0.149,4.659,0.454,6.334c0.306,1.675,0.756,3.02,1.365,4.039
			c0.605,1.02,1.37,1.74,2.295,2.149C480.774,483.226,481.854,483.436,483.099,483.436z"/>
		<path d="M532.531,492.754c-1.274,0-2.649-0.1-4.135-0.31c-1.479-0.205-2.964-0.645-4.444-1.314
			c-1.484-0.67-2.899-1.615-4.254-2.845c-1.354-1.225-2.55-2.845-3.59-4.85c-1.034-2.01-1.859-4.489-2.484-7.434
			c-0.62-2.949-0.93-6.464-0.93-10.543v-28.926c0-4.109,0.315-7.624,0.955-10.538c0.635-2.915,1.479-5.369,2.534-7.364
			c1.05-1.989,2.26-3.574,3.635-4.754c1.369-1.18,2.784-2.08,4.254-2.705c1.465-0.619,2.925-1.024,4.375-1.22
			c1.449-0.189,2.794-0.285,4.039-0.285c3.249,0,5.964,0.455,8.148,1.365c2.185,0.905,3.939,2.149,5.26,3.729
			c1.324,1.574,2.265,3.414,2.819,5.52c0.56,2.104,0.84,4.334,0.84,6.693c0,1.755-0.09,3.369-0.265,4.854
			c-0.176,1.479-0.44,3.114-0.79,4.899H538.46v-4.16c0-4.494-0.494-7.858-1.479-10.088c-0.99-2.229-2.439-3.345-4.354-3.345
			c-1.145,0-2.149,0.22-3.01,0.665c-0.859,0.45-1.579,1.205-2.149,2.274c-0.574,1.065-1.015,2.475-1.314,4.229
			c-0.305,1.755-0.455,3.935-0.455,6.549v37.289c0,2.55,0.12,4.67,0.36,6.359c0.234,1.689,0.624,3.045,1.169,4.064
			c0.54,1.02,1.25,1.744,2.125,2.175c0.88,0.43,1.939,0.645,3.18,0.645c0.8,0,1.564-0.18,2.295-0.55
			c0.734-0.365,1.38-0.939,1.939-1.72c0.555-0.78,1-1.77,1.335-2.965c0.335-1.194,0.505-2.604,0.505-4.229v-7.983h11.328v7.554
			c0,6.564-1.5,11.408-4.494,14.533C542.444,491.149,538.141,492.725,532.531,492.754z"/>
		<path d="M559.687,465.269l-4.969,3.869l-5.645-7.408l10.613-8.509v-43.648h12.238v33.8l9.419-7.648l6.214,8.028l-15.633,12.099
			v26.29h16.928v9.898h-29.166V465.269z"/>
		<path d="M605.63,410.388h14.247l15.108,81.651h-12.528l-2.244-14.627h-14.918l-2.149,14.627h-12.573L605.63,410.388z
			 M618.777,468.088l-5.739-40.684h-0.524l-5.784,40.684H618.777z"/>
		<path d="M637.66,410.388h11.853l5.499,49.332l0.62,11.523h1.2l1.145-12.953l8.799-47.902h9.894l8.413,47.902l0.955,12.953h1.245
			l0.574-11.523l5.02-49.332h11.903l-11.424,81.651h-12.572l-6.744-39.248l-2.104-17.067h-0.955l-2.055,17.067l-7.074,39.248
			h-12.433L637.66,410.388z"/>
	</g>
	<path d="M289.935,215.068l29.348-7.342l10.258-102.661H180.352h-5.119h-47.265l4.177,150.449l-19.925-6.374l-8.003-144.075H58.196
		h-2.364H22.959l30.935,300.686l0.12,1.149l27.94,19.954l37.489-18.814l-3.637-80.055l61.988,27.593l60.44-27.101l-1.782,38.837
		l-20.679,10.766L177.8,359.633l-40.641,19.52l2.357,86.443l38.321,25.109l121.151-84.579l16.188-156.511l-42.928-8.699
		l-49.822,15.09l2.747-81.275l20.829-3.104l-1.17,37.729L289.935,215.068z M99.372,110.185l7.719,138.888l-36.689,9.173
		L58.604,110.185H99.372z M84.407,419.898l-9.711-110.207l35.882,15.969l3.602,79.296L84.407,419.898z M77.193,261.823l32.485-8.121
		l22.617,7.234l0.545,19.597L77.193,261.823z M218.733,382.312l22.699-11.818l0.018-0.372l30.68,14.908l-54.974,34.116
		L218.733,382.312z M177.787,365.317l32.333,15.704l-32.323,16.828l-32.337-17.003L177.787,365.317z M272.497,246.191l30.213,6.121
		l-81.11,28.126l0.645-19.03L272.497,246.191z M220.198,170.298l-3.132,92.678l0.007-0.002l-0.842,24.744l93.2-32.32
		l-15.292,147.874l-113.787,79.438v-80.414l33.14-17.255l-1.865,43.565l65.657-40.751l7.907-86.037l-104.839,47.008v-238.64h143.535
		l-9.339,93.448l-21.951,5.492l3.744-50.172l-48.063,7.161v0.002L220.198,170.298z"/>
</g>
</svg>
