<?xml version="1.0" encoding="UTF-8" standalone="no"?>
<svg
   version="1.1"
   id="Layer_1"
   x="0px"
   y="0px"
   width="32"
   height="32"
   viewBox="0 0 31.999999 31.999999"
   enable-background="new 0 0 595.28 841.89"
   xml:space="preserve"
   xmlns="http://www.w3.org/2000/svg"
   xmlns:svg="http://www.w3.org/2000/svg"
   xmlns:rdf="http://www.w3.org/1999/02/22-rdf-syntax-ns#"
   xmlns:cc="http://creativecommons.org/ns#"
   xmlns:dc="http://purl.org/dc/elements/1.1/"><metadata
   id="metadata941"><rdf:RDF><cc:Work
       rdf:about=""><dc:format>image/svg+xml</dc:format><dc:type
         rdf:resource="http://purl.org/dc/dcmitype/StillImage" /></cc:Work></rdf:RDF></metadata><defs
   id="defs939">
	
	
</defs>

<path
   d="m 23.491039,10.54271 1.933902,-0.483729 0.676004,-6.7647733 h -9.830746 -0.337327 -3.114549 l 0.27526,9.9137293 -1.31288,-0.419974 -0.527244,-9.4937553 H 8.2208821 8.0650368 5.8990546 l 2.0384727,19.8136273 0.00773,0.0759 1.8411355,1.314904 2.4702512,-1.23968 -0.239503,-5.275134 4.084704,1.818198 3.982831,-1.785814 -0.117391,2.55897 -1.362804,0.7094 -2.502299,-1.21573 -2.678383,1.286231 0.155171,5.69612 2.525237,1.654592 7.983201,-5.57333 1.066631,-10.313126 -2.828833,-0.57312 -3.282874,0.994442 0.181145,-5.3554172 1.372588,-0.2044207 -0.07725,2.4861069 z M 10.93401,3.6315358 11.4427,12.783578 9.0250722,13.38807 8.2475309,3.6315358 Z M 9.947664,24.039873 9.3077531,16.777878 11.672083,17.83034 11.909562,23.055549 Z M 9.4723689,13.623862 11.61305,13.08886 l 1.490315,0.476645 0.03575,1.29129 z m 9.3267781,7.939348 1.495711,-0.77889 10e-4,-0.02463 2.021606,0.982299 -3.622564,2.24829 z m -2.697949,-1.119927 2.130564,1.034921 -2.12989,1.108797 -2.130899,-1.120266 z m 6.240903,-7.84962 1.990909,0.403444 -5.344622,1.853279 0.04251,-1.253847 z M 18.895623,7.5927764 18.689178,13.699761 h 3.37e-4 l -0.05566,1.630305 6.141392,-2.12955 -1.007599,9.744052 -7.498123,5.234654 v -5.298745 l 2.18386,-1.137133 -0.122787,2.87066 4.326566,-2.68513 0.520835,-5.66947 -6.908137,3.097683 V 3.6315358 h 9.458336 l -0.615284,6.1575822 -1.446462,0.361953 0.246587,-3.3061504 -3.167172,0.4719218 v 0 z"
   id="path932"
   style="stroke-width:0.337328" />
</svg>
