<?xml version="1.0" encoding="utf-8"?>
<!-- Generator: Adobe Illustrator 15.0.2, SVG Export Plug-In . SVG Version: 6.00 Build 0)  -->
<!DOCTYPE svg PUBLIC "-//W3C//DTD SVG 1.1//EN" "http://www.w3.org/Graphics/SVG/1.1/DTD/svg11.dtd">
<svg version="1.1" id="Layer_1" xmlns="http://www.w3.org/2000/svg" xmlns:xlink="http://www.w3.org/1999/xlink" x="0px" y="0px"
	 width="595.28px" height="841.89px" viewBox="0 0 595.28 841.89" enable-background="new 0 0 595.28 841.89" xml:space="preserve">
<g>
	<rect fill="#FDB515" width="595.28" height="841.89"/>
	<path fill="#F9A01B" d="M595.53,842.14H-0.25V-0.25h595.78V842.14z M0.25,841.64h594.78V0.25H0.25V841.64z"/>
</g>
<g>
	<g>
		<path d="M110.499,45.846h4.104v11.328h4.863V45.846h4.104v27.061h-4.104V60.406h-4.863v12.501h-4.104V45.846z"/>
		<path d="M130.881,45.846h4.721l5.007,27.061h-4.15l-0.745-4.848h-4.943l-0.713,4.848h-4.167L130.881,45.846z M135.238,64.969
			l-1.901-13.483h-0.174l-1.917,13.483H135.238z"/>
		<path d="M149.054,73.144c-0.423,0-0.879-0.034-1.37-0.103c-0.491-0.069-0.982-0.214-1.474-0.436s-0.961-0.536-1.41-0.943
			c-0.449-0.406-0.845-0.942-1.188-1.607c-0.343-0.666-0.618-1.487-0.823-2.464c-0.206-0.977-0.31-2.142-0.31-3.493v-9.586
			c0-1.362,0.105-2.527,0.317-3.493c0.211-0.967,0.491-1.78,0.839-2.44c0.349-0.659,0.75-1.186,1.205-1.576
			c0.453-0.391,0.924-0.689,1.409-0.896c0.486-0.206,0.97-0.34,1.45-0.403s0.927-0.096,1.339-0.096c1.077,0,1.978,0.15,2.701,0.452
			c0.724,0.301,1.305,0.713,1.743,1.235c0.438,0.523,0.749,1.133,0.935,1.83c0.185,0.697,0.277,1.437,0.277,2.218
			c0,0.581-0.029,1.117-0.088,1.608c-0.058,0.491-0.145,1.032-0.261,1.624h-3.327v-1.378c0-1.489-0.164-2.604-0.491-3.344
			c-0.328-0.739-0.809-1.108-1.442-1.108c-0.38,0-0.713,0.073-0.998,0.222c-0.285,0.147-0.522,0.398-0.713,0.752
			c-0.189,0.354-0.335,0.822-0.436,1.402c-0.101,0.581-0.15,1.305-0.15,2.171V65.65c0,0.846,0.04,1.548,0.119,2.107
			c0.079,0.561,0.208,1.009,0.388,1.347c0.18,0.339,0.415,0.578,0.705,0.721c0.291,0.143,0.642,0.214,1.054,0.214
			c0.264,0,0.518-0.061,0.761-0.182c0.242-0.121,0.456-0.312,0.642-0.57c0.185-0.259,0.333-0.586,0.443-0.982
			c0.111-0.396,0.166-0.863,0.166-1.402v-2.646h3.756v2.503c0,2.176-0.497,3.781-1.49,4.816
			C152.339,72.611,150.914,73.133,149.054,73.144z"/>
		<path d="M158.053,45.846h4.104v11.819h0.126l4.69-11.819h4.087l-5.228,12.69l5.814,14.37h-4.389l-4.976-12.881h-0.126v12.881
			h-4.104V45.846z"/>
		<path d="M173.976,45.846h10.028v3.231h-5.925v8.097h4.578v3.231h-4.578v9.269h6.084v3.232h-10.188V45.846z"/>
		<path d="M187.126,45.846h4.452c0.507,0,1.063,0.021,1.671,0.063s1.215,0.145,1.822,0.309s1.193,0.409,1.759,0.736
			c0.564,0.328,1.066,0.776,1.505,1.347s0.789,1.286,1.054,2.147c0.264,0.86,0.396,1.903,0.396,3.129v0.682
			c0,2.06-0.296,3.736-0.888,5.03s-1.463,2.226-2.614,2.796l4.341,10.821h-4.341l-3.597-10.124h-1.536v10.124h-4.024V45.846z
			 M191.768,59.82c0.719,0,1.325-0.079,1.822-0.237c0.496-0.158,0.897-0.425,1.204-0.801c0.307-0.374,0.528-0.871,0.665-1.489
			c0.138-0.617,0.206-1.381,0.206-2.289v-2.139c0-0.697-0.063-1.299-0.189-1.807c-0.127-0.507-0.341-0.924-0.642-1.251
			c-0.302-0.327-0.7-0.57-1.196-0.729c-0.497-0.158-1.12-0.237-1.87-0.237h-0.617V59.82H191.768z"/>
		<path d="M109.453,96.7c0-0.581,0.034-1.117,0.103-1.608c0.069-0.491,0.172-1.022,0.31-1.593h3.185v1.315
			c0,0.729,0.045,1.373,0.135,1.933c0.089,0.561,0.237,1.033,0.443,1.418c0.206,0.386,0.48,0.677,0.824,0.872
			c0.343,0.195,0.763,0.293,1.259,0.293c0.782,0,1.379-0.214,1.791-0.642c0.411-0.428,0.617-1.054,0.617-1.878
			c0-0.422-0.029-0.811-0.087-1.164c-0.058-0.354-0.158-0.705-0.301-1.054s-0.336-0.716-0.578-1.102
			c-0.243-0.385-0.555-0.815-0.936-1.291l-4.277-5.086c-0.761-0.972-1.347-1.951-1.759-2.938c-0.412-0.988-0.618-2.041-0.618-3.161
			c0-0.897,0.141-1.722,0.42-2.472c0.28-0.75,0.685-1.396,1.213-1.94c0.527-0.544,1.18-0.967,1.956-1.268
			c0.776-0.302,1.656-0.452,2.638-0.452c1.194,0,2.189,0.169,2.987,0.508c0.797,0.338,1.434,0.781,1.909,1.33
			c0.475,0.55,0.811,1.165,1.006,1.846c0.195,0.682,0.293,1.365,0.293,2.052c0,0.581-0.045,1.117-0.135,1.608
			s-0.192,1.032-0.309,1.624h-3.169v-1.283c0-1.437-0.206-2.537-0.618-3.304c-0.412-0.766-1.083-1.148-2.012-1.148
			c-0.771,0-1.347,0.214-1.728,0.642c-0.38,0.428-0.57,1.001-0.57,1.719c0,0.381,0.029,0.724,0.088,1.03
			c0.058,0.307,0.143,0.589,0.253,0.848c0.111,0.259,0.246,0.51,0.404,0.753c0.158,0.242,0.338,0.496,0.538,0.76l4.77,5.768
			c0.866,1.13,1.531,2.216,1.996,3.256s0.697,2.142,0.697,3.303c0,0.962-0.15,1.828-0.452,2.599
			c-0.301,0.771-0.731,1.426-1.291,1.965c-0.56,0.538-1.235,0.953-2.027,1.243c-0.793,0.291-1.686,0.437-2.678,0.437
			c-1.226,0-2.242-0.164-3.05-0.491c-0.809-0.327-1.453-0.761-1.934-1.3c-0.48-0.538-0.818-1.15-1.014-1.838
			C109.55,98.12,109.453,97.417,109.453,96.7z"/>
		<path d="M125.483,75.121h4.104c0.517,0,1.085,0.023,1.703,0.071c0.617,0.047,1.235,0.158,1.854,0.332
			c0.618,0.175,1.215,0.441,1.79,0.801c0.576,0.359,1.086,0.848,1.529,1.465c0.443,0.618,0.8,1.393,1.069,2.321
			c0.27,0.93,0.404,2.06,0.404,3.391v0.951c0,1.446-0.125,2.685-0.373,3.715s-0.578,1.896-0.99,2.599
			c-0.411,0.702-0.89,1.265-1.434,1.688c-0.544,0.422-1.109,0.742-1.695,0.958c-0.586,0.217-1.178,0.359-1.774,0.428
			c-0.597,0.069-1.159,0.104-1.688,0.104h-0.396v8.238h-4.104V75.121z M129.792,90.932c0.738,0,1.362-0.108,1.869-0.324
			c0.507-0.217,0.911-0.555,1.212-1.015c0.301-0.459,0.518-1.051,0.649-1.774s0.198-1.592,0.198-2.606v-2.439
			c0-0.803-0.059-1.497-0.174-2.084c-0.117-0.586-0.325-1.069-0.626-1.449s-0.705-0.663-1.212-0.848
			c-0.508-0.185-1.146-0.277-1.917-0.277h-0.206v12.817H129.792z"/>
		<path d="M143.208,75.121h4.721l5.007,27.061h-4.15l-0.745-4.848h-4.943l-0.713,4.848h-4.167L143.208,75.121z M147.565,94.244
			l-1.901-13.483h-0.174l-1.917,13.483H147.565z"/>
		<path d="M161.38,102.418c-0.423,0-0.879-0.034-1.37-0.103c-0.491-0.069-0.982-0.214-1.474-0.436s-0.961-0.536-1.41-0.943
			c-0.449-0.406-0.845-0.942-1.188-1.607c-0.343-0.666-0.618-1.487-0.823-2.464c-0.206-0.977-0.31-2.142-0.31-3.493v-9.586
			c0-1.362,0.105-2.527,0.317-3.493c0.211-0.967,0.491-1.78,0.839-2.44c0.349-0.659,0.75-1.186,1.205-1.576
			c0.453-0.391,0.924-0.689,1.409-0.896c0.486-0.205,0.97-0.34,1.45-0.403s0.927-0.096,1.339-0.096c1.077,0,1.978,0.15,2.701,0.452
			c0.724,0.301,1.305,0.713,1.743,1.235c0.438,0.523,0.749,1.133,0.935,1.83c0.185,0.697,0.277,1.437,0.277,2.218
			c0,0.581-0.029,1.117-0.088,1.608c-0.058,0.491-0.145,1.032-0.261,1.624h-3.327v-1.378c0-1.489-0.164-2.604-0.491-3.344
			c-0.328-0.739-0.809-1.108-1.442-1.108c-0.38,0-0.713,0.073-0.998,0.222c-0.285,0.147-0.522,0.398-0.713,0.752
			c-0.189,0.354-0.335,0.822-0.436,1.402c-0.101,0.581-0.15,1.305-0.15,2.171v12.357c0,0.846,0.04,1.548,0.119,2.107
			c0.079,0.561,0.208,1.009,0.388,1.347c0.18,0.339,0.415,0.578,0.705,0.721c0.291,0.143,0.642,0.214,1.054,0.214
			c0.264,0,0.518-0.061,0.761-0.182c0.242-0.121,0.456-0.312,0.642-0.57c0.185-0.259,0.333-0.586,0.443-0.982
			c0.111-0.396,0.166-0.863,0.166-1.402v-2.646h3.756v2.503c0,2.176-0.497,3.781-1.49,4.816
			C164.666,101.885,163.24,102.408,161.38,102.418z"/>
		<path d="M170.38,75.121h10.028v3.231h-5.925v8.097h4.578v3.231h-4.578v9.269h6.084v3.232H170.38V75.121z"/>
		<path d="M108.531,105.747h2.315l1.074,9.637l0.121,2.251h0.234l0.224-2.53l1.719-9.357h1.933l1.644,9.357l0.187,2.53h0.243
			l0.112-2.251l0.98-9.637h2.325l-2.231,15.95h-2.456l-1.317-7.667l-0.411-3.334h-0.187l-0.401,3.334l-1.382,7.667h-2.429
			L108.531,105.747z"/>
		<path d="M123.361,105.747h2.624c0.299,0,0.628,0.012,0.985,0.037c0.358,0.024,0.716,0.086,1.074,0.182
			c0.358,0.097,0.703,0.241,1.036,0.435s0.629,0.458,0.888,0.794c0.258,0.336,0.465,0.758,0.621,1.266
			c0.155,0.507,0.233,1.122,0.233,1.844v0.401c0,1.215-0.175,2.203-0.523,2.966s-0.862,1.312-1.54,1.648l2.559,6.378h-2.559
			l-2.12-5.968h-0.906v5.968h-2.372V105.747z M126.097,113.983c0.424,0,0.781-0.047,1.074-0.14c0.292-0.094,0.529-0.251,0.71-0.472
			c0.18-0.222,0.311-0.514,0.392-0.878s0.122-0.814,0.122-1.35v-1.261c0-0.411-0.038-0.766-0.112-1.064
			c-0.075-0.299-0.201-0.545-0.378-0.738c-0.178-0.192-0.413-0.336-0.705-0.43c-0.293-0.093-0.66-0.14-1.103-0.14h-0.364v6.472
			H126.097z"/>
		<path d="M136.677,121.836c-0.256,0-0.532-0.02-0.831-0.061c-0.299-0.04-0.595-0.126-0.888-0.257
			c-0.292-0.131-0.574-0.315-0.845-0.556c-0.271-0.239-0.511-0.556-0.719-0.947c-0.209-0.393-0.376-0.877-0.5-1.452
			c-0.125-0.576-0.187-1.263-0.187-2.06v-5.65c0-0.803,0.063-1.489,0.191-2.059c0.127-0.569,0.297-1.049,0.509-1.438
			c0.212-0.389,0.453-0.698,0.724-0.929s0.554-0.406,0.85-0.528c0.296-0.121,0.59-0.2,0.883-0.238
			c0.293-0.037,0.563-0.056,0.813-0.056c0.236,0,0.5,0.018,0.789,0.052s0.579,0.108,0.868,0.224c0.29,0.115,0.571,0.287,0.846,0.514
			c0.273,0.228,0.517,0.536,0.729,0.925c0.211,0.389,0.381,0.872,0.509,1.447c0.127,0.576,0.191,1.271,0.191,2.087v5.65
			c0,0.791-0.065,1.471-0.196,2.041c-0.131,0.569-0.302,1.052-0.514,1.447s-0.456,0.713-0.733,0.952
			c-0.276,0.24-0.56,0.427-0.85,0.561c-0.289,0.134-0.577,0.223-0.863,0.267C137.166,121.815,136.908,121.836,136.677,121.836z
			 M136.677,120.016c0.236,0,0.443-0.041,0.621-0.122c0.178-0.08,0.323-0.221,0.438-0.42s0.202-0.462,0.262-0.789
			s0.089-0.739,0.089-1.237v-7.256c0-0.511-0.029-0.938-0.089-1.28c-0.06-0.342-0.146-0.617-0.262-0.826
			c-0.115-0.208-0.261-0.356-0.438-0.443s-0.385-0.131-0.621-0.131c-0.243,0-0.454,0.044-0.635,0.131s-0.33,0.235-0.448,0.443
			c-0.119,0.209-0.207,0.484-0.267,0.826c-0.06,0.343-0.089,0.77-0.089,1.28v7.256c0,0.498,0.029,0.91,0.089,1.237
			s0.147,0.59,0.267,0.789c0.118,0.199,0.268,0.34,0.448,0.42C136.223,119.975,136.434,120.016,136.677,120.016z"/>
		<path d="M146.333,121.836c-0.249,0-0.518-0.02-0.808-0.061c-0.289-0.04-0.579-0.126-0.868-0.257
			c-0.29-0.131-0.566-0.315-0.831-0.556c-0.265-0.239-0.498-0.556-0.701-0.947c-0.202-0.393-0.363-0.877-0.485-1.452
			c-0.121-0.576-0.182-1.263-0.182-2.06v-5.65c0-0.803,0.062-1.489,0.187-2.059c0.124-0.569,0.289-1.049,0.495-1.438
			c0.205-0.389,0.441-0.698,0.71-0.929c0.268-0.23,0.544-0.406,0.831-0.528c0.286-0.121,0.571-0.2,0.854-0.238
			c0.283-0.037,0.546-0.056,0.789-0.056c0.635,0,1.165,0.089,1.592,0.267c0.427,0.177,0.77,0.42,1.027,0.729
			c0.259,0.308,0.442,0.667,0.551,1.078c0.109,0.411,0.164,0.847,0.164,1.308c0,0.343-0.018,0.658-0.052,0.948
			c-0.034,0.289-0.086,0.608-0.154,0.957h-1.961v-0.813c0-0.878-0.097-1.535-0.289-1.971c-0.193-0.436-0.477-0.653-0.851-0.653
			c-0.224,0-0.42,0.043-0.588,0.13c-0.168,0.088-0.309,0.235-0.42,0.444c-0.112,0.208-0.198,0.483-0.257,0.826
			c-0.06,0.343-0.089,0.769-0.089,1.279v7.284c0,0.498,0.023,0.912,0.07,1.242c0.046,0.33,0.122,0.595,0.229,0.794
			c0.105,0.199,0.244,0.341,0.415,0.425c0.172,0.084,0.379,0.126,0.621,0.126c0.156,0,0.306-0.035,0.448-0.107
			c0.144-0.071,0.27-0.184,0.379-0.336c0.108-0.152,0.195-0.346,0.261-0.579s0.099-0.509,0.099-0.826v-1.56h2.213v1.476
			c0,1.282-0.293,2.229-0.878,2.839S147.429,121.831,146.333,121.836z"/>
		<path d="M151.638,116.467l-0.971,0.756l-1.103-1.447l2.073-1.662v-8.526h2.391v6.603l1.84-1.494l1.214,1.568l-3.054,2.363v5.136
			h3.307v1.934h-5.697V116.467z"/>
		<path d="M160.613,105.747h2.783l2.951,15.95H163.9l-0.438-2.857h-2.914l-0.42,2.857h-2.456L160.613,105.747z M163.181,117.018
			l-1.121-7.947h-0.103l-1.13,7.947H163.181z"/>
		<path d="M166.87,105.747h2.315l1.074,9.637l0.121,2.251h0.234l0.224-2.53l1.719-9.357h1.933l1.644,9.357l0.187,2.53h0.243
			l0.112-2.251l0.98-9.637h2.325l-2.231,15.95h-2.456l-1.317-7.667l-0.411-3.334h-0.187l-0.401,3.334l-1.382,7.667h-2.429
			L166.87,105.747z"/>
	</g>
	<path d="M98.944,67.592l5.733-1.434l2.004-20.054H77.538h-1h-9.233l0.816,29.389l-3.892-1.245l-1.563-28.144h-8.99h-0.462h-6.421
		l6.043,58.737l0.023,0.225l5.458,3.898l7.323-3.675l-0.71-15.638l12.109,5.39l11.807-5.294l-0.348,7.586l-4.04,2.103l-7.418-3.604
		L69.1,99.645l0.46,16.886l7.486,4.905l23.666-16.522l3.162-30.573l-8.386-1.699l-9.732,2.948l0.537-15.876l4.069-0.606l-0.229,7.37
		L98.944,67.592z M61.719,47.104l1.508,27.131l-7.167,1.792l-2.305-28.923H61.719z M58.795,107.604l-1.897-21.528l7.009,3.12
		l0.704,15.49L58.795,107.604z M57.386,76.726l6.346-1.586l4.418,1.413l0.106,3.828L57.386,76.726z M85.035,100.262l4.434-2.309
		l0.003-0.073l5.993,2.912l-10.739,6.665L85.035,100.262z M77.037,96.942l6.316,3.068l-6.314,3.287l-6.317-3.321L77.037,96.942z
		 M95.538,73.672l5.902,1.196l-15.844,5.494l0.126-3.717L95.538,73.672z M85.321,58.847l-0.612,18.104l0.001,0l-0.165,4.833
		l18.206-6.313l-2.987,28.886l-22.228,15.518v-15.708l6.474-3.371l-0.364,8.51l12.826-7.96l1.544-16.807l-20.479,9.183V47.104
		h28.039l-1.824,18.254l-4.288,1.073l0.731-9.801l-9.389,1.399v0L85.321,58.847z"/>
</g>
</svg>
