<?xml version="1.0" encoding="UTF-8" standalone="no"?>
<!-- Created with Inkscape (http://www.inkscape.org/) -->

<svg
   version="1.1"
   id="svg2"
   width="640"
   height="640"
   viewBox="0 0 640 640"
   xml:space="preserve"
   xmlns="http://www.w3.org/2000/svg"
   xmlns:svg="http://www.w3.org/2000/svg"><defs
     id="defs6">
	
	

		
		
		
		
		
		
		
		
		
		
		
		
		
		
		
		
		
		
	</defs><g
     id="g8"><rect
       style="opacity:1;fill:#fdb515;fill-opacity:1;fill-rule:evenodd;stroke:#ffffff;stroke-width:0;stroke-miterlimit:4.2;stroke-dasharray:none;stroke-dashoffset:0.569953"
       id="rect2708"
       width="640"
       height="640"
       x="0"
       y="0" /><path
       d="m 423.98521,203.25783 26.7817,-6.69893 9.36169,-93.68225 h -136.14149 -4.6715 -43.13195 l 3.81194,137.29069 -18.18147,-5.81601 -7.30155,-131.47468 h -41.99678 -2.15824 -29.99569 l 28.22987,274.38985 0.10744,1.05108 25.49704,18.20951 34.20939,-17.16777 -3.31676,-73.05289 56.56718,25.17937 55.15638,-24.73091 -1.62568,35.43799 -18.87285,9.82416 -34.65318,-16.83608 -37.09171,17.81242 2.1489,78.88293 34.97084,22.91371 110.55569,-77.18251 14.77128,-142.82174 -39.17519,-7.93687 -45.46303,13.77157 2.5086,-74.16471 19.00833,-2.83093 -1.06978,34.42895 z m -173.89655,-95.70968 7.04463,126.74244 -33.48064,8.37133 -10.76781,-135.11377 z m -13.65946,282.62569 -8.86183,-100.56802 32.74253,14.57507 3.28874,72.36152 z m -6.58214,-144.24654 29.64533,-7.409 20.63868,6.60083 0.49518,17.8825 z m 129.16227,109.9484 20.71343,-10.78649 0.014,-0.34102 27.9963,13.6034 -50.16723,31.13555 z m -37.36265,-15.50938 29.50519,14.33217 -29.49584,15.35521 -29.50986,-15.51405 z m 86.42741,-108.70578 27.57118,5.58712 -74.01522,25.66521 0.5886,-17.36396 z m -47.72871,-69.25497 -2.85895,84.57282 h 0.005 l -0.77079,22.57735 85.04931,-29.49117 -13.95377,134.94092 -103.83808,72.49232 v -73.3799 l 30.24328,-15.74763 -1.70043,39.75446 59.91666,-37.18513 7.21279,-78.51389 -95.66763,42.89837 V 107.54815 h 130.98416 l -8.52082,85.27355 -20.03138,5.01252 3.41487,-45.78536 -43.86071,6.53542 v 0 z"
       id="path932"
       style="opacity:1;stroke-width:4.6715" /><g
       id="g1928"
       style="opacity:1"
       transform="matrix(0.91355098,0,0,0.91355098,626.94798,29.4555)"><path
         d="m -518.60992,475.45986 h 11.853 l 5.499,49.332 0.62,11.52301 h 1.2 l 1.145,-12.953 8.798,-47.902 h 9.894 l 8.414,47.902 0.955,12.953 h 1.245 l 0.575,-11.52301 5.019,-49.332 h 11.903 l -11.423,81.651 h -12.573 l -6.744,-39.24799 -2.105,-17.06701 h -0.955 l -2.055,17.06701 -7.074,39.24799 h -12.433 z"
         id="path1474" /><path
         d="m -442.69192,475.45986 h 13.434 c 1.529,0 3.214,0.06 5.043,0.189 1.836,0.125 3.665,0.44 5.5,0.93 1.834,0.495 3.6,1.23501 5.304,2.22501 1.705,0.99 3.22,2.345 4.544,4.064 1.32,1.72 2.38,3.88 3.18,6.479 0.795,2.595 1.195,5.74399 1.195,9.438 v 2.055 c 0,6.219 -0.895,11.278 -2.68,15.183 -1.785,3.90499 -4.414,6.714 -7.884,8.43799 l 13.098,32.64901 h -13.098 l -10.854,-30.55001 h -4.64 v 30.55001 h -12.142 z m 14.008,42.16301 c 2.17,0 4,-0.24 5.499,-0.715 1.495,-0.48001 2.71,-1.285 3.635,-2.41501 0.919,-1.135 1.589,-2.629 2.005,-4.49399 0.414,-1.864 0.625,-4.169 0.625,-6.909 v -6.453 c 0,-2.105 -0.195,-3.92 -0.575,-5.449 -0.386,-1.53 -1.03,-2.79 -1.935,-3.779 -0.91,-0.985 -2.115,-1.721 -3.609,-2.2 -1.5,-0.475 -3.38,-0.715 -5.645,-0.715 h -1.865 v 33.13 h 1.865 z"
         id="path1476" /><path
         d="m -374.52292,557.82587 c -1.31,0 -2.725,-0.10001 -4.254,-0.31 -1.53,-0.205 -3.044,-0.645 -4.544,-1.31401 -1.495,-0.67 -2.939,-1.615 -4.324,-2.845 -1.385,-1.225 -2.615,-2.845 -3.68,-4.85 -1.07,-2.01 -1.925,-4.48899 -2.56,-7.434 -0.64,-2.949 -0.955,-6.464 -0.955,-10.543 v -28.926 c 0,-4.109 0.325,-7.624 0.979,-10.538 0.65,-2.915 1.52,-5.369 2.605,-7.364 1.084,-1.989 2.319,-3.574 3.704,-4.754 1.385,-1.18 2.835,-2.08 4.349,-2.705 1.516,-0.619 3.02,-1.024 4.52,-1.22 1.5,-0.189 2.885,-0.285 4.159,-0.285 1.21,0 2.56,0.091 4.04,0.266 1.479,0.175 2.964,0.555 4.444,1.145 1.484,0.59 2.924,1.47 4.329,2.63 1.399,1.165 2.645,2.744 3.729,4.734 1.08,1.989 1.949,4.464 2.604,7.408 0.649,2.95 0.979,6.51 0.979,10.684 v 28.926 c 0,4.049 -0.335,7.528 -1.005,10.448 -0.67,2.914 -1.545,5.384 -2.629,7.408 -1.085,2.025 -2.335,3.649 -3.755,4.875 -1.415,1.229 -2.864,2.185 -4.35,2.869 -1.479,0.685 -2.954,1.14 -4.419,1.365 -1.466,0.221 -2.786,0.33 -3.966,0.33001 z m 0,-9.318 c 1.21,0 2.271,-0.21001 3.18,-0.625 0.91,-0.409 1.655,-1.13 2.245,-2.149 0.59,-1.019 1.034,-2.364 1.34,-4.039 0.305,-1.67501 0.455,-3.784 0.455,-6.334 v -37.145 c 0,-2.614 -0.15,-4.799 -0.455,-6.554 -0.306,-1.75 -0.75,-3.159 -1.34,-4.229 -0.59,-1.064 -1.335,-1.824 -2.245,-2.27 -0.909,-0.445 -1.97,-0.67 -3.18,-0.67 -1.244,0 -2.324,0.225 -3.249,0.67 -0.925,0.445 -1.689,1.205 -2.295,2.27 -0.609,1.07 -1.06,2.479 -1.365,4.229 -0.305,1.755 -0.454,3.939 -0.454,6.554 v 37.145 c 0,2.55 0.149,4.65899 0.454,6.334 0.306,1.675 0.756,3.02 1.365,4.039 0.605,1.02 1.37,1.74 2.295,2.149 0.924,0.41499 2.004,0.625 3.249,0.625 z"
         id="path1478" /><path
         d="m -325.09092,557.82587 c -1.274,0 -2.649,-0.10001 -4.135,-0.31 -1.479,-0.205 -2.964,-0.645 -4.444,-1.31401 -1.484,-0.67 -2.899,-1.615 -4.254,-2.845 -1.354,-1.225 -2.55,-2.845 -3.59,-4.85 -1.034,-2.01 -1.859,-4.48899 -2.484,-7.434 -0.62,-2.949 -0.93,-6.464 -0.93,-10.543 v -28.926 c 0,-4.109 0.315,-7.624 0.955,-10.538 0.635,-2.915 1.479,-5.369 2.534,-7.364 1.05,-1.989 2.26,-3.574 3.635,-4.754 1.369,-1.18 2.784,-2.08 4.254,-2.705 1.465,-0.619 2.925,-1.024 4.375,-1.22 1.449,-0.189 2.794,-0.285 4.039,-0.285 3.249,0 5.964,0.455 8.148,1.365 2.185,0.905 3.939,2.149 5.26,3.729 1.324,1.574 2.265,3.414 2.819,5.52 0.56,2.104 0.84,4.334 0.84,6.693 0,1.755 -0.09,3.369 -0.265,4.854 -0.176,1.479 -0.44,3.114 -0.79,4.899 h -10.038 v -4.16 c 0,-4.494 -0.494,-7.858 -1.479,-10.088 -0.99,-2.229 -2.439,-3.345 -4.354,-3.345 -1.145,0 -2.149,0.22 -3.01,0.665 -0.859,0.45 -1.579,1.205 -2.149,2.274 -0.574,1.065 -1.015,2.475 -1.314,4.229 -0.305,1.755 -0.455,3.935 -0.455,6.549 v 37.289 c 0,2.55 0.12,4.67 0.36,6.359 0.234,1.689 0.624,3.045 1.169,4.064 0.54,1.02 1.25,1.744 2.125,2.175 0.88,0.43 1.939,0.645 3.18,0.645 0.8,0 1.564,-0.18 2.295,-0.55 0.734,-0.365 1.38,-0.939 1.939,-1.72 0.555,-0.78 1,-1.77 1.335,-2.965 0.335,-1.194 0.505,-2.604 0.505,-4.229 v -7.983 h 11.328 v 7.554 c 0,6.564 -1.5,11.408 -4.494,14.533 -2.997,3.127 -7.3,4.703 -12.91,4.73201 z"
         id="path1480" /><path
         d="m -297.93492,530.34086 -4.969,3.86901 -5.645,-7.408 10.613,-8.50901 v -43.648 h 12.238 v 33.8 l 9.419,-7.648 6.214,8.028 -15.633,12.099 v 26.29 h 16.928 v 9.89801 h -29.166 v -26.77101 z"
         id="path1482" /><path
         d="m -251.99192,475.45986 h 14.247 l 15.108,81.651 h -12.528 l -2.244,-14.627 h -14.918 l -2.149,14.627 h -12.573 z m 13.147,57.7 -5.739,-40.684 h -0.524 l -5.784,40.684 z"
         id="path1484" /><path
         d="m -219.96192,475.45986 h 11.853 l 5.499,49.332 0.62,11.52301 h 1.2 l 1.145,-12.953 8.799,-47.902 h 9.894 l 8.413,47.902 0.955,12.953 h 1.245 l 0.574,-11.52301 5.02,-49.332 h 11.903 l -11.424,81.651 h -12.572 l -6.744,-39.24799 -2.104,-17.06701 h -0.955 l -2.055,17.06701 -7.074,39.24799 h -12.433 z"
         id="path1486" /></g></g></svg>
